CoelacanthItalicGross.sfdir
StartChar: period
Encoding: 46 46 405
Width: 184
VWidth: 1159
Flags: HW
LayerCount: 2
Fore
SplineSet
142.598632812 34.599609375 m 0
 115.615234376 19.677734375 94.7919921867 0.6865234375 75.677734375 -27.7998046875 c 0
 73.0117187492 -34.7998046875 61.8007812496 -39 52.9384765625 -39 c 3
 44.939453125 -39 35.431640625 -34.7998046875 34.4775390625 -27.7998046875 c 0
 22.5888671875 0.6865234375 8.5849609375 19.677734375 -13.8017578125 34.599609375 c 0
 -19.0244140625 36.900390625 -22.7109375 46.099609375 -23.375 53 c 1
 -23.6220703125 61.8623046875 -15.03125 69.24609375 -8.1123046875 72.2001953125 c 0
 18.755859375 86.912109375 38.6875 108.3125 57.6796875 136.400390625 c 0
 60.0585937498 143.400390625 71.1611328129 149 79.1611328125 149 c 3
 88.0224609385 149 97.6386718758 143.400390625 98.8798828125 136.400390625 c 0
 110.890625001 108.3125 125.786132812 86.912109375 148.288085937 72.2001953125 c 0
 153.369140624 69.24609375 155.778320313 61.8623046875 156.025390625 53 c 1
 156.689453124 46.099609375 149.375976563 36.900390625 142.598632812 34.599609375 c 0
EndSplineSet
Position2: "Extra space for context kern-1" dx=78 dy=0 dh=156 dv=0
Position2: "cpsp-1" dx=0 dy=0 dh=7 dv=14
EndChar
StartChar: four
Encoding: 52 52 266
Width: 487
VWidth: 1159
Flags: HW
LayerCount: 2
Fore
SplineSet
212.0625 66 m 1
 221.41761529 120.706896552 235.536223554 145.783712344 231.6328125 218 c 1
 231.6328125 218 140.7578125 132.5390625 53.0625 69 c 1
 212.0625 66 l 1
404.720703125 409.5 m 1
 399.970703124 384.740234376 371.759731821 340.531642377 366.12890625 317 c 0
 343.140805067 221.079124579 333.261456972 174.766831728 308.0625 66 c 1
 357.451171876 62 401.265625 82 450.278320312 128 c 1
 450.278320312 128 465.241210938 121.33984375 469.443359376 119 c 1
 469.443359376 119 422.952237693 42.1395198171 390.831054688 -7 c 1
 369.82421875 2.591796875 322.24609375 1.060546875 294.461914062 1 c 1
 279.387859091 -70.1387205679 265.996653597 -147.15029865 265.34375 -171 c 1
 215.380874548 -197.23630137 175.984375 -234 162.793945312 -252.5 c 1
 162.793945312 -252.5 137.485388428 -237.96535773 134.666992188 -231.5 c 1
 142.548828124 -226 194.291015624 17.384765624 197.2578125 0 c 1
 33.5042242403 0 12.9772265289 1.17647058824 -29.20703125 -20 c 1
 -29.20703125 -20 -44.9427641959 -1.93354492188 -50.130859375 3 c 1
 -31.3498007699 19 345.17578125 367.599609376 383.829101562 422.299804688 c 1
 404.720703125 409.5 l 1
EndSplineSet
Substitution2: "dnom-1" four.denom
Substitution2: "numr-1" four.numerator
Substitution2: "tnum-1" four.tabulartext
Substitution2: "lnum-1" four.proportionallining
EndChar
StartChar: greater
Encoding: 62 62 286
Width: 463
VWidth: 0
Flags: HW
LayerCount: 2
Back
SplineSet
21.720703125 339.2 m 1
 71.469726562 412 l 1
 411.46875 201 l 1
 114.530273438 -7 l 1
 92.0673828125 24 l 1
 296.46875 170.2 l 1
 21.720703125 339.2 l 1
EndSplineSet
Fore
SplineSet
53.720703125 339.200195312 m 1
 103.469726562 412 l 1
 411.46875 201 l 1
 82.5302734375 -7 l 1
 60.0673828125 24 l 1
 294.46875 172.200195312 l 1
 53.720703125 339.200195312 l 1
EndSplineSet
Position2: "'case' vertical ajustments for all-caps-1" dx=0 dy=90 dh=0 dv=0
EndChar
StartChar: G
Encoding: 71 71 1275
Width: 767
VWidth: 1159
Flags: HW
AnchorPoint: "Top" 532.922 699 basechar 0
AnchorPoint: "Bottom" 386.618 -15 basechar 0
LayerCount: 2
Back
SplineSet
57.4609375 264.528320312 m 0
 50.2921964142 549.762695312 295.683551879 706 538.73828125 706 c 3
 598.796031249 706 641.052116344 687.825444974 683.5234375 671 c 0
 723.088426713 656.052621239 724.836401816 677.238095238 749.973632812 697 c 1
 774 696 l 1
 750.58984375 515 l 1
 718.772460937 506 l 1
 672.244140624 630 514.888671876 655 479.733398438 655 c 3
 290.923828124 655 224.820105604 432.934048838 223.76171875 295.56640625 c 0
 225.33203125 161.1796875 309.833397672 45 428.880859376 45 c 3
 492.40625 45 461.66014102 42.538528445 509.466796876 73 c 0
 530.264640154 84.8544366785 532.036833379 86.298552896 535.711914062 96 c 0
 544.29044992 131.594981061 561.954091256 190.063348434 571.78125 244 c 0
 577.158203124 264 560.71106627 307.225608851 517.849609376 314 c 0
 494.607933489 316.94962722 480.481452756 314.952380952 456.845703125 312 c 1
 465.0078125 352 l 1
 576.845290033 342 705.305209874 343 762.086914062 349 c 1
 757.71484375 325 l 1
 738.90234375 312 716.1640625 299 714.631835938 290 c 0
 695.602606096 214.014153139 679.768451894 143.47585133 663.842773438 91 c 0
 661.346046748 88.9904404769 670.161470653 76.9090909091 689.540039063 48 c 1
 684.08984375 27 l 1
 594.971366346 16.7142857143 406.302818481 -9 347.4609375 -9 c 3
 177.625 -9 63.1391259592 101.076788486 57.4609375 264.528320312 c 0
EndSplineSet
Fore
SplineSet
57.4609375 264.528320312 m 0
 50.2921964142 549.762695312 295.683551879 706 538.73828125 706 c 3
 598.796031249 706 640.788766231 687.144862678 683.5234375 671 c 0
 723.088426713 656.052621239 724.836401816 677.238095238 749.973632812 697 c 1
 774 696 l 1
 750.58984375 515 l 1
 718.772460937 506 l 1
 672.244140624 630 514.888671876 655 479.733398438 655 c 3
 290.923828124 655 222.156636005 432.928748696 223.76171875 295.56640625 c 0
 225.33203125 161.1796875 309.833397672 45 428.880859376 45 c 3
 495.979745676 45 495.231445312 47.26171875 509 59 c 0
 523.565429688 71.4169921875 525.287040959 80.6481987768 530.711914062 96 c 0
 543.290039062 131.594726562 561.322526523 190.182247034 571.78125 244 c 0
 578 276 563.802472428 308.197528421 531 311 c 0
 502.50252839 313.434674838 485.576525505 313 456.845703125 315 c 1
 465.0078125 352 l 1
 576.845290033 342 705.305209874 343 762.086914062 349 c 1
 757.71484375 321 l 1
 738.90234375 317.142857143 717.106991231 297.784283112 714.631835938 290 c 0
 692.602606096 214.014153139 676.292380769 144.170667554 663.842773438 91 c 0
 660.070574355 74.8894241335 670.161470653 64.9090909091 689.540039063 48 c 1
 684.08984375 27 l 1
 594.971366346 16.7142857143 406.302818481 -9 347.4609375 -9 c 3
 177.625 -9 61.5701141019 101.02981956 57.4609375 264.528320312 c 0
EndSplineSet
Position2: "cpsp-1" dx=0 dy=0 dh=50 dv=100
Substitution2: "c2pc-1" g.pcap
Substitution2: "c2sc-1" g.smcp
EndChar
StartChar: M
Encoding: 77 77 1293
Width: 941
VWidth: 1159
Flags: HW
AnchorPoint: "Top" 560.424 699 basechar 0
AnchorPoint: "Bottom" 414.828 -15 basechar 0
LayerCount: 2
Fore
SplineSet
878.4453125 -3 m 1
 846.956054688 3.5615234375 813.23046875 7.0234375 776.250976562 7.0234375 c 1
 707.0234375 7.0234375 666.095703125 3.564453125 606.397460938 -6 c 1
 611.315429688 46 l 1
 644.060546875 44 693.3359375 100.435546875 716.47265625 188 c 0
 745.252929688 291.37109375 762.645507812 415.78125 759.991210938 507 c 1
 663.169921875 402.197265625 568.15625 245.46875 493.056640625 132 c 0
 463.53515625 87.3955078125 453 34 437.051757812 -3 c 1
 389.051757812 -3 l 1
 397 42 395.5 84.4169921875 381.861328125 130 c 2
 277.116210938 500 l 1
 233.530273438 408.837890625 215.375 301.233398438 201.59765625 198 c 0
 184.655273438 71.0576171875 208.91796875 53 227 42 c 1
 210.233398438 -4 l 1
 176.155273438 1.111328125 134.814453125 5.7529296875 90.87890625 5.7529296875 c 1
 51.3134765625 5.7529296875 10.67578125 3.22265625 -29.7666015625 -4 c 1
 -25.1611328125 48 l 1
 50.6494140625 50 100.930664062 113.91796875 118.435546875 182 c 2
 187.711914062 487 l 2
 196.115234375 523.482421875 202.055664062 556.500976562 187.758789062 587 c 0
 171.821289062 621 152.58984375 629 86.1728515625 638 c 1
 110.463867188 699 l 1
 190.6875 684 271.217773438 682 366.375976562 685 c 0
 387.80078125 687 381.4921875 672.920898438 383.521484375 661 c 0
 406.49609375 526 443.189453125 376 501 266 c 1
 806.764648438 681 l 0
 810.90625 690 816.815429688 694.64453125 822.956054688 693 c 0
 882.938476562 682 948.034179688 686 1012 691 c 1
 1008.08203125 634 l 1
 969.09765625 630 919 624 891.303710938 517 c 0
 862.334960938 405.0859375 845.298828125 293.375976562 834.953125 180 c 0
 820.108398438 76 853.95703125 49 887.83984375 47 c 1
 878.4453125 -3 l 1
EndSplineSet
Position2: "cpsp-1" dx=0 dy=0 dh=50 dv=100
Substitution2: "c2pc-1" m.pcap
Substitution2: "c2sc-1" m.smcp
EndChar
StartChar: Q
Encoding: 81 81 1315
Width: 773
VWidth: 1361
Flags: HW
AnchorPoint: "Top" 483.654 699 basechar 0
AnchorPoint: "Bottom" 264.587 -15 basechar 0
LayerCount: 2
Back
SplineSet
431.35546875 675 m 3
 345.990311113 675 273.677765867 575.819180912 242.75 424 c 0
 203.343802786 232.037900875 244.016366941 73 357.9140625 73 c 3
 481.969876685 73 510.446259015 179.186717865 542.892578124 323 c 0
 595.088416677 559.830021956 532.764832371 675 431.35546875 675 c 3
394.028320312 6 m 1
 453.988270047 -67.272118284 577.09416774 -88 690.01953125 -88 c 3
 695.960831222 -88 703.121912796 -95.5106026786 705.764648438 -98 c 1
 708.84765625 -137 l 1
 689.02706394 -144.876953125 619.655532079 -162 565.720703125 -162 c 3
 405.460502629 -162 286.232248638 -98.5813110352 231.133789062 0 c 1
 107.127665479 46.7443509083 27.2268580383 175.430980696 67.3525390625 364 c 0
 113.739257812 582 289.060546875 716 466.060546875 716 c 3
 644.060546875 716 757.691366729 567.80092424 718.247070312 367 c 0
 683.85802457 191.431693989 540.01980485 55.4824125756 394.028320312 6 c 1
EndSplineSet
Fore
SplineSet
419.35546875 656 m 3
 339.421875 656 274.516601562 564.346679688 240.75 416 c 0
 197.055664062 224.038085938 280.90234375 59 383.9140625 59 c 3
 451.266601562 59 546.796875 134.063476562 580.892578125 298 c 0
 621.247070312 492.026367188 528.794921875 656 419.35546875 656 c 3
414.028320312 6 m 1
 473.98828125 -67.2724609375 597.09375 -88 710.01953125 -88 c 3
 715.9609375 -88 723.122070312 -95.5107421875 725.764648438 -98 c 1
 728.84765625 -137 l 1
 709.02734375 -144.876953125 639.655273438 -162 585.720703125 -162 c 3
 425.4609375 -162 306.232421875 -98.5810546875 251.133789062 0 c 1
 127.127929688 46.744140625 27.2280990728 175.430337099 67.3525390625 364 c 0
 113.739257812 582 309.060546875 706 486.060546875 706 c 3
 664.060546875 706 797.507407558 567.836837526 758.247070312 367 c 0
 717 156 560.01953125 55.482421875 414.028320312 6 c 1
EndSplineSet
Position2: "cpsp-1" dx=0 dy=0 dh=50 dv=100
Substitution2: "salt-1" Q.alt
Substitution2: "c2pc-1" q.pcap
Substitution2: "c2sc-1" q.smcp
EndChar
StartChar: U
Encoding: 85 85 1328
Width: 771
VWidth: 1159
Flags: HW
AnchorPoint: "Ogonek" 368.367 10 basechar 0
AnchorPoint: "Top" 493.718 699 basechar 0
AnchorPoint: "Bottom" 319.152 -15 basechar 0
LayerCount: 2
Back
SplineSet
114.837890625 690 m 1
 147.689453125 686.5 201.075195312 684.75 257.877929688 684.75 c 0
 309.962890625 684.75 365.180664062 686.5 407.837890625 690 c 1
 401.938476562 644 l 1
 383.796875 643 323.884765625 620.779296875 312.88671875 557 c 0
 311.553710938 548.793945312 239.193359375 283.30859375 232.506835938 255 c 0
 221.681640625 210.080078125 226.90234375 153.45703125 250.919921875 129 c 0
 292.162109375 77.5478515625 359.314453125 74 422.75390625 74 c 3
 384.75390625 74 462.787109375 58.8994140625 528.109375 119 c 0
 562.990234375 152.018554688 574.866210938 192.267578125 597.349609375 260 c 0
 628.321289062 353.18359375 654.603515625 505.133789062 668.415039062 598 c 0
 674.022460938 638.211914062 624.749023438 639.090820312 592.032226562 641 c 1
 604.837890625 690 l 1
 635.250976562 686.284179688 696.383789062 683.9765625 752.803710938 683.9765625 c 0
 793.897460938 683.9765625 831.958984375 685.778320312 846.837890625 690 c 1
 838.095703125 638 l 1
 817.706054688 637.15625 772.303710938 638.490234375 757.100585938 608 c 0
 752.310546875 597.508789062 728.358398438 481.202148438 674.506835938 255 c 0
 655.083007812 173 617.141601562 107.979492188 563.4765625 65 c 0
 501.048828125 15 417.833984375 -10 319.833984375 -10 c 3
 210.833984375 -10 144.575195312 18.7705078125 111.3828125 68 c 0
 83.0625 110 79.4658203125 165.728515625 93.1044921875 236 c 0
 98.611328125 264.213867188 166.694335938 546.985351562 168.791992188 560 c 0
 177.41015625 609.799804688 161.346679688 626.563476562 93.064453125 636 c 1
 114.837890625 690 l 1
EndSplineSet
Fore
SplineSet
128 690 m 1
 160.8515625 686.5 201.237304688 684.75 258.040039062 684.75 c 0
 310.125 684.75 365.342773438 686.5 408 690 c 1
 402.100585938 644 l 1
 365.958984375 637 328.465820312 619.857421875 313.048828125 557 c 0
 301.715820312 510.793945312 249.35546875 283.30859375 244.668945312 255 c 0
 237.122070312 209.415039062 240.646484375 153.9921875 263.08203125 129 c 0
 301.681640625 86 334.681640625 72 404.681640625 72 c 3
 454.840820312 72 497.681640625 90 528.271484375 119 c 0
 563.127929688 152.044921875 575.028320312 192.267578125 597.51171875 260 c 0
 628.483398438 353.18359375 654.765625 505.133789062 668.577148438 598 c 0
 674.184570312 638.211914062 624.911132812 639.090820312 592.194335938 641 c 1
 605 690 l 1
 635.413085938 686.284179688 696.545898438 683.9765625 752.965820312 683.9765625 c 0
 794.059570312 683.9765625 832.12109375 685.778320312 847 690 c 1
 838.2578125 638 l 1
 817.868164062 637.15625 772.465820312 638.490234375 757.262695312 608 c 0
 752.47265625 597.508789062 728.520507812 481.202148438 674.668945312 255 c 0
 655.245117188 173 617.303710938 107.979492188 563.638671875 65 c 0
 501.2109375 15 417.99609375 -10 319.99609375 -10 c 3
 210.99609375 -10 152.739257812 18.771484375 119.544921875 68 c 0
 91.224609375 110 82.9462890625 179.728515625 96.5849609375 250 c 0
 102.091796875 278.213867188 166.706054688 547.010742188 168.954101562 560 c 0
 177.572265625 609.799804688 178.8671875 635.563476562 112.584960938 643 c 1
 128 690 l 1
EndSplineSet
Position2: "cpsp-1" dx=0 dy=0 dh=50 dv=100
Substitution2: "c2pc-1" u.pcap
Substitution2: "c2sc-1" u.smcp
EndChar
StartChar: b
Encoding: 98 98 164
Width: 463
VWidth: 1159
Flags: HMW
AnchorPoint: "Top" 241.747 749 basechar 0
AnchorPoint: "Bottom" 151.087 -15 basechar 0
LayerCount: 2
Back
SplineSet
166.970703125 252 m 1
 159.212890625 214.123046875 152.038085938 185.263671875 152.24609375 154 c 1
 152.857421875 140 154.276367188 132.73828125 157.46875 126 c 0
 169.352539062 100.916992188 195.67578125 83 222.040039062 83 c 3
 294.232421875 83 323.471679688 111.421875 326.241210938 223.73046875 c 0
 327.6796875 282.056640625 307.9375 325 255.637695312 325 c 3
 211.990234375 325 171.725585938 267.470703125 166.970703125 252 c 1
EndSplineSet
Fore
SplineSet
166.970703125 252 m 1
 159.212890625 214.123046875 152.038085938 185.263671875 152.24609375 154 c 1
 152.857421875 140 154.276367188 132.73828125 157.46875 126 c 0
 169.352539062 100.916992188 201.67578125 83 228.040039062 83 c 3
 295.232421875 83 321.349609375 135.078125 325.086914062 205 c 0
 328.525390625 269.326171875 307.9375 325 255.637695312 325 c 3
 211.990234375 325 171.725585938 267.470703125 166.970703125 252 c 1
92.2822265625 660 m 1
 114.173828125 695.890625 166.478515625 724.9453125 218.783203125 754 c 1
 263.892578125 719.0703125 289.100585938 673.662109375 312.678710938 630 c 1
 255.96875 586.857421875 220.1796875 501.82421875 175.569335938 306 c 1
 197.9296875 334.0234375 283.743164062 413 345.416992188 413 c 3
 399.140625 413 437.9140625 355.814453125 440.9140625 287.098632812 c 0
 447.150390625 144.262695312 283.602539062 -9 165.095703125 -9 c 3
 108.309570312 -9 100.45703125 18.1884765625 75.830078125 20 c 0
 57.9345703125 22.1064453125 37.6591796875 26 30.611328125 25 c 1
 16 39 l 1
 54.0810546875 177.291015625 119.505859375 445.959960938 124.022460938 539 c 0
 124.9765625 558.6640625 121.12109375 584.545898438 116.857421875 601 c 0
 111.635742188 621.146484375 101.721679688 642.0234375 92.2822265625 660 c 1
EndSplineSet
Substitution2: "case-1" B
Substitution2: "pcap-1" b.pcap
Substitution2: "smcp-1" b.smcp
EndChar
StartChar: g
Encoding: 103 103 276
Width: 448
VWidth: 1159
UnlinkRmOvrlpSave: 1
Flags: HMW
AnchorPoint: "Top" 277 465 basechar 0
AnchorPoint: "Bottom" 181 -318 basechar 0
LayerCount: 2
Back
SplineSet
358.334960938 361.822265625 m 1
 385.58203125 374.30078125 413.529296875 380 436.334960938 380 c 3
 451.334960938 380 471.334960938 378 476.334960938 374 c 1
 433.334960938 261 l 1
 405.334960938 281.752929688 367.334960938 294 347.334960938 294 c 0
 351.374023438 294 369.428710938 295.024414062 376.334960938 303 c 1
 375.380859375 302.833007812 357.66796875 361.553710938 358.334960938 361.822265625 c 1
377.334960938 229 m 0
 357.681640625 138.673828125 255.310546875 83.2646484375 188.334960938 53 c 0
 172.467773438 45.357421875 166.40234375 38.1533203125 163.334960938 32.5966796875 c 0
 160.741210938 27.8984375 158.598632812 22.314453125 158.334960938 12 c 1
 159.77734375 2 167.030273438 -2.7138671875 177.334960938 -4 c 1
 200.596679688 -7 223.073242188 -1 250.334960938 -2 c 1
 350.334960938 -7.8603515625 366.822265625 -67.8193359375 361.334960938 -107 c 1
 345.334960938 -229.185546875 141.334960938 -337 60.3349609375 -337 c 3
 -35.6650390625 -337 -71.6650390625 -280 -62.6650390625 -231 c 1
 -52.287109375 -165.859375 52.3349609375 -104.579101562 97.3349609375 -90.0498046875 c 1
 98.3857421875 -89.5703125 123.659179688 -103.397460938 122.334960938 -104 c 1
 76.7255859375 -114.34765625 41.4462890625 -157.3984375 37.3349609375 -176 c 1
 25.33203125 -223 95.8642578125 -233 142.334960938 -233 c 3
 220.334960938 -233 277.033203125 -196 280.334960938 -177 c 1
 283.334960938 -159 280.334960938 -124.6015625 235.334960938 -118 c 1
 212.873046875 -115 182.5390625 -116.16796875 161.334960938 -116 c 0
 103.477539062 -115.5859375 33.46484375 -96 26.3349609375 10 c 1
 90.4296875 52 136.334960938 40.287109375 188.334960938 90 c 0
 226.245117188 120.827148438 264.53125 163.540039062 265.334960938 239 c 1
 265.115234375 313 271.334960938 364 212.334960938 364 c 3
 175.389648438 364 161.271484375 305.07421875 153.334960938 257 c 0
 135.263671875 159.629882812 190.334960938 140.63671875 219.334960938 96 c 1
 220.420898438 95.3525390625 143.088867188 48.6728515625 142.334960938 49 c 1
 76.62109375 66.1298828125 15.5078125 122.395507812 42.3349609375 242 c 0
 66.3349609375 349 196.296875 416 276.334960938 416 c 3
 350.506835938 416 400.319335938 334.642578125 377.334960938 229 c 0
EndSplineSet
Fore
SplineSet
358 361.822265625 m 1
 385.247070312 374.30078125 413.194335938 380 436 380 c 3
 451 380 471 378 476 374 c 1
 433 261 l 1
 405 281.752929688 367 294 347 294 c 0
 351.0390625 294 369.09375 295.024414062 376 303 c 1
 375.045898438 302.833007812 357.333007812 361.553710938 358 361.822265625 c 1
377 229 m 0
 357.346679688 138.673828125 254.975585938 83.2646484375 188 53 c 0
 172.1328125 45.357421875 166.067382812 38.1533203125 163 32.5966796875 c 0
 160.40625 27.8984375 158.263671875 22.314453125 158 12 c 1
 159.442382812 2 166.6953125 -2.7138671875 177 -4 c 1
 200.26171875 -7 222.73828125 -1 250 -2 c 1
 350 -7.8603515625 366.487304688 -67.8193359375 361 -107 c 1
 345 -229.185546875 141 -337 60 -337 c 3
 -36 -337 -72 -280 -63 -231 c 1
 -52.6220703125 -165.859375 52 -104.579101562 97 -90.0498046875 c 1
 98.05078125 -89.5703125 123.32421875 -103.397460938 122 -104 c 1
 76.390625 -114.34765625 41.111328125 -157.3984375 37 -176 c 1
 24.9970703125 -223 95.529296875 -233 142 -233 c 3
 220 -233 276.698242188 -196 280 -177 c 1
 283 -159 280 -124.6015625 235 -118 c 1
 212.538085938 -115 182.204101562 -116.16796875 161 -116 c 0
 103.142578125 -115.5859375 33.1298828125 -96 26 10 c 1
 90.0947265625 52 132.184570312 44.61328125 188 90 c 0
 225.91015625 120.827148438 261 155 269 279 c 1
 271.780273438 344 241.017578125 364 212 364 c 3
 175.0546875 364 160.936523438 305.07421875 153 257 c 0
 134.928710938 159.629882812 186 136.63671875 219 96 c 1
 220.0859375 95.3525390625 142.75390625 48.6728515625 142 49 c 1
 76.2861328125 66.1298828125 15.1728515625 122.395507812 42 242 c 0
 66 349 195.961914062 416 276 416 c 3
 350.171875 416 399.984375 334.642578125 377 229 c 0
EndSplineSet
Substitution2: "smcp-1" g.smcp
Substitution2: "pcap-1" g.pcap
Substitution2: "case-1" G
EndChar
StartChar: braceleft
Encoding: 123 123 169
Width: 266
VWidth: 1515
Flags: HW
LayerCount: 2
Fore
SplineSet
239.5 716.3 m 1
 239.5 716.3 239.5 693.120119141 239.5 678.300195312 c 1
 206.152271186 673.523231804 186 654.550249001 186 576 c 3
 186 496.172217391 222 477.642614907 222 393 c 3
 222 336.698791247 139.776 260.730714845 110.5 243.300195313 c 1
 139.776 225.963463079 222 150.275453744 222 94.1992 c 3
 222 9.09314285714 186 -9.53693714286 186 -89.8008 c 3
 186 -168.043686813 206.152271186 -186.925885891 239.5 -191.699804687 c 1
 239.5 -229.7 l 1
 164.146 -233.096 91.5 -190.992 91.5 -39.7002 c 3
 91.5 20.2272 114 52.5951 114 99.5996 c 3
 114 145.457749793 81.5417 206.109973162 11.5 227.300195313 c 1
 11.5 259.300195313 l 1
 81.5417 280.489374075 114 341.142384598 114 387 c 3
 114 434.004 91.5 466.372 91.5 526.3 c 3
 91.5 677.592 164.146 719.696 239.5 716.3 c 1
EndSplineSet
Position2: "cpsp-1" dx=0 dy=0 dh=50 dv=100
Position2: "'case' vertical ajustments for all-caps-1" dx=0 dy=90 dh=0 dv=0
EndChar
StartChar: eth
Encoding: 240 240 239
Width: 460
UnlinkRmOvrlpSave: 1
Flags: HW
LayerCount: 2
Back
SplineSet
272.830078125 419 m 3
 350.583984375 419 396.982421875 353.18359375 396.982421875 265.012695312 c 0
 396.982421875 114.403320312 282.178710938 -10 172.048828125 -10 c 3
 93.9375 -10 41.640625 48.2861328125 41.640625 147.842773438 c 0
 41.640625 320.034179688 190.349609375 419 272.830078125 419 c 3
246.641601562 373 m 3
 190.947265625 373 117.360351562 291.327148438 117.360351562 169.911132812 c 0
 117.360351562 87.3173828125 148.770507812 31 193.54296875 31 c 3
 250.7109375 31 322.633789062 120.900390625 322.633789062 246.533203125 c 0
 322.633789062 328.408203125 288.54296875 373 246.641601562 373 c 3
EndSplineSet
Fore
SplineSet
350.862304688 309 m 1
 329.791992188 356.879882812 282.016601562 372 243.963867188 372 c 3
 207.16015625 372 131.963867188 311 119.963867188 218 c 0
 107.362304688 120.338867188 132.439453125 33 194.53515625 33 c 3
 273.8203125 33 323.245117188 122.61328125 340.119140625 202 c 0
 376.301757812 372.223632812 285.54296875 618 144.97265625 700 c 1
 150.467773438 706.58203125 163.044921875 727.453125 163.044921875 727.453125 c 1
 334.977539062 675.166015625 452.744140625 441.06640625 416.133789062 235 c 0
 394.181640625 111.44140625 308.85546875 -10 166.120117188 -10 c 3
 80.9736328125 -10 26.8857421875 72.4794921875 45.5302734375 196 c 0
 66.9638671875 338 197.072265625 419 278.963867188 419 c 3
 295.661132812 419 327.932617188 406.197265625 343.504882812 392 c 1
 350.862304688 309 l 1
EndSplineSet
Refer: 487 58113 N 0.322128 0.177084 -0.361801 0.872389 140.081 489.958 2
Substitution2: "pcap-1" eth.pcap
Substitution2: "case-1" Eth
Substitution2: "smcp-1" eth.smcp
EndChar
StartChar: eogonek
Encoding: 281 281 232
Width: 393
VWidth: 1159
UnlinkRmOvrlpSave: 1
Flags: HW
AnchorPoint: "Top" 209 465 basechar 0
LayerCount: 2
Fore
SplineSet
252.680664062 19.884765625 m 1
 143.04296875 -59.7666015625 107.37109375 -132.534179688 107.37109375 -185.48828125 c 3
 107.37109375 -217.349609375 125.030273438 -235.530273438 151.92578125 -235.530273438 c 3
 171.678710938 -235.530273438 197.666992188 -224.841796875 227.017578125 -201.2578125 c 9
 227.017578125 -201.2578125 235.930664062 -211.584960938 236.905273438 -219.658203125 c 1
 198.680664062 -272.446289062 148.25 -295.658203125 106.75 -295.658203125 c 3
 63.9189453125 -295.658203125 31.2109375 -267.856445312 31.2109375 -220.041992188 c 3
 31.2109375 -150.641601562 103.0546875 -44.607421875 250.4921875 41.103515625 c 1
 252.680664062 19.884765625 l 1
EndSplineSet
Refer: 215 101 N 1 0 0 1 0 0 2
Substitution2: "smcp-1" eogonek.smcp
Substitution2: "case-1" Eogonek
Substitution2: "pcap-1" eogonek.pcap
EndChar
StartChar: dotlessi
Encoding: 305 305 213
Width: 315
VWidth: 1159
Flags: HMW
AnchorPoint: "Top" 218 465 basechar 0
LayerCount: 2
Back
SplineSet
201 197 m 0
 206 193.634765624 194.611111111 126.016143799 196 111 c 1
 194.666666667 106.5 206 104.333333333 224 110 c 1
 231.363636364 110.785661369 239.909090909 116.482169316 254 121 c 1
 274 106 l 1
 244.127659574 66.025390625 158.936170213 -11 118 -11 c 3
 76.766499837 -11 59 20.158203125 59 56 c 3
 59 98.266304348 90.916130878 142.155416441 103 188 c 0
 106.44832481 199.615190006 109.09145765 220.237471964 115 273 c 0
 116.193946331 286.305047327 115 297.631578947 111 299 c 1
 107.000120192 299 79.040564904 270.15234375 87 288 c 1
 72 305 l 1
 101.933785103 342.451171875 192.888704868 413 247 413 c 3
 277 413 284.029403966 391.411655518 274 365 c 0
 272.5 358 261.426859435 347.137454738 259 341 c 0
 239.428260216 303.200195312 204.032150228 212.082887732 201 197 c 0
185 197 m 0
 173 153.317382812 162 91.349609375 167 69 c 1
 169 60 176 59 188 63 c 1
 202 67.142578125 234 97.1787109375 254 121 c 1
 274 106 l 1
 247 66.025390625 170 -11 133 -11 c 3
 99.4541015625 -11 85 20.158203125 85 56 c 3
 85 100.1875 110.362304688 147.377929688 124 194 c 0
 129.818359375 212.58203125 150.181640625 274.830078125 156 325 c 0
 157 335 156 343 152 344 c 1
 141.166992188 344 98.818359375 301.576171875 87 288 c 1
 72 305 l 1
 97.3154296875 342.451171875 174.237304688 413 220 413 c 3
 250 413 253 392 247 365 c 0
 246 358 239 347 237 341 c 0
 222.142578125 303.200195312 189.235351562 212.41796875 185 197 c 0
EndSplineSet
Fore
SplineSet
204 197 m 0
 192 143 190 113 196 107 c 1
 200 104 209 106.333007812 220 110 c 1
 227.36328125 112.786132812 235.909179688 115.482421875 250 121 c 1
 270 106 l 1
 240.127929688 66.025390625 158.936170213 -11 118 -11 c 3
 76.766499837 -11 59 20.158203125 59 56 c 3
 59 98.266304348 87.916015625 142.155273438 100 188 c 0
 103.448242188 199.615234375 109.091796875 220.237304688 117 273 c 0
 118.980040957 286.210623968 119 298.631578947 111 299 c 1
 107.000120192 299 91 290 84 286 c 1
 69 303 l 1
 98.93359375 340.451171875 192.888704868 413 247 413 c 3
 277 413 284.029403966 391.411655518 274 365 c 0
 271.458583427 358.307377061 264.034612601 346.861022402 261 341 c 0
 241.428710938 303.200195312 207.596874404 213.185934816 204 197 c 0
EndSplineSet
Substitution2: "case-1" I
Substitution2: "pcap-1" i.pcap
Substitution2: "smcp-1" i.smcp
EndChar
StartChar: uni0191
Encoding: 401 401 541
Width: 566
Flags: HW
LayerCount: 2
Fore
SplineSet
100 613 m 0
 99 640 85 640 12 654 c 1
 17 685 l 1
 72.5693359375 682.208007812 135.545898438 680.974609375 197.612304688 680.974609375 c 3
 357.814453125 680.974609375 511.955078125 689.188476562 517 700 c 1
 533.364257812 690.374023438 538 683 538 662 c 0
 538 640 532.59375 602.985351562 530 534 c 1
 499 531 l 1
 488 567 492.194335938 614.658203125 456 625 c 0
 393 643 292.116210938 650.012695312 211 641 c 0
 193 639 189.889648438 622.005859375 189 604 c 0
 185 523 186 446 186 371 c 1
 250 373 382.090820312 369.120117188 396 371 c 0
 433 376 439 402 455 446 c 1
 489 439 l 1
 480.80078125 408.1328125 477.486328125 377.498046875 477.486328125 346.872070312 c 3
 477.486328125 313.998046875 481.305664062 281.1328125 487 248 c 1
 451 239 l 1
 431 310 436.931640625 322.348632812 396 327 c 0
 352 332 278 331 185 332 c 1
 183.518987342 219 183.857421875 264.909513116 183.857421875 156 c 3
 183.857421875 -45.5189056133 181.691494061 -104.752042573 60 -189 c 0
 21 -216 -16 -241 -75 -241 c 3
 -107 -241 -157 -230 -182 -208 c 1
 -180.775510204 -178.046875 -182 -178.046875 -122 -137 c 1
 -83 -155 -59.650848842 -179 -14 -179 c 3
 123.758644643 -179 105.748046875 -3.25197176855 105.748046875 129 c 3
 105.748046875 269.484864474 102.712540065 539.779746226 100 613 c 0
EndSplineSet
EndChar
StartChar: florin
Encoding: 402 402 264
Width: 357
Flags: HW
LayerCount: 2
Fore
SplineSet
114 266 m 1
 114 286 113 323 113 360 c 1
 88 359 64 356 39 355 c 1
 39 401 l 1
 64 400 88 398 113 397 c 1
 113 436 113 481 113 493 c 3
 113 601 156.035980107 656.947986228 224 704 c 0
 263 731 300 756 359 756 c 3
 391 756 441 745 466 723 c 1
 465 696 466 696 417 659 c 1
 378 677 347 701 309 701 c 3
 206 701 202.089643728 608.896437283 191 498 c 0
 190 488 188 435 187 397 c 1
 239 399 286 399 338 401 c 1
 338 355 l 1
 286 357 238 358 186 360 c 1
 185 330 185 305 185 293 c 1
 184.164092406 225.85 184.42446481 171.543697529 183.345703125 55 c 0
 182.342007512 -53.4339567976 179.423768932 -124.413476345 170.249023438 -172 c 0
 157.630814681 -237.446686212 132.308131815 -279.271062226 103.470703125 -323 c 1
 93.330078125 -322 94.189453125 -321 52.189453125 -321 c 3
 31.189453125 -321 -0.248046875 -325 -12.1083984375 -326 c 1
 -22.1669921875 -290 l 1
 34.828869585 -275.843201216 67.8420667116 -238.660890175 86.3564453125 -187 c 0
 106.080112104 -131.964818646 115.098427084 -53.1177976917 117.264648438 20 c 0
 119.252828284 87.1082535059 114.822504473 193.318181818 114 266 c 1
EndSplineSet
EndChar
StartChar: uni0198
Encoding: 408 408 547
Width: 687
Flags: HW
LayerCount: 2
Fore
SplineSet
236 370 m 1
 576 87 l 0
 610 59 649 38 677 23 c 1
 673 -1 l 1
 645 1 606 4 578 4 c 0
 545 4 503 1 471 -4 c 1
 467 21 l 1
 497 30 513.454283452 33.4072133617 491 58 c 0
 470 81 280 232 178 316 c 1
 178 235 180.437873927 134.085710579 183 79 c 0
 185 36 217 34 276 20 c 1
 272 -10 l 1
 195 2 115 7 15 -5 c 1
 12 28 l 1
 67 29 88.8448476065 35.0089550282 91 71 c 0
 101 238 101.21927907 417.969825563 95 589 c 0
 93 644 78 645 15 657 c 1
 21 688 l 1
 101 678 190 681 269 689 c 1
 272 657 l 1
 214 652 189.572216385 651.213235274 187 608 c 0
 182 524 178 444 178 357 c 1
 220.488107554 401.675670719 283.863543539 476.459463654 347 543.189453125 c 0
 420.965761113 621.365117979 478.688704962 696.489257812 548.770507812 696.489257812 c 3
 619.689656377 696.489257812 662 654.763980872 662 594 c 3
 662 554.444658561 634.129127673 535.030273438 604.740234375 535.030273438 c 3
 582.598681853 535.030273438 559.595489704 547.806929751 547 573 c 1
 556.570921215 587.361991845 565 594.861661579 565 622 c 3
 565 633.888349158 550.656639289 643.274414062 533.823242188 643.274414062 c 3
 504.593942763 643.274414062 464.167926381 606.405004804 418.000002622 560.375045523 c 0
 355.786719522 498.34767555 274.781381017 411.818567198 236 370 c 1
EndSplineSet
EndChar
StartChar: uni01B3
Encoding: 435 435 557
Width: 800
Flags: HW
AnchorPoint: "Top" 387 699 basechar 0
AnchorPoint: "Bottom" 387 -15 basechar 0
LayerCount: 2
Fore
SplineSet
431 335 m 1
 430 285 424.409677786 232.80451327 444 80 c 0
 449 41 469 36 550 32 c 1
 545 -11 l 1
 440.578125 3.193359375 352.874023438 6.126953125 249 -11 c 1
 237 31 l 1
 316 43.8798828125 353.891760422 55.8578591121 353 100 c 2
 349 298 l 1
 342 309.404296875 244.657000474 472.503851361 114 608 c 0
 87 636 65 636 6 652 c 1
 10 692 l 1
 67 686 211 679 269 690 c 1
 274 651 l 1
 274 651 252 649 237 649 c 0
 219 649 204.251994244 639.160430422 215 622 c 0
 306 476.708007812 396 373.2265625 401 368 c 1
 503.652364082 548.396433938 557.974118707 701.489257812 679.770507812 701.489257812 c 3
 750.689656377 701.489257812 793 659.763980872 793 599 c 3
 793 559.444658561 765.129127673 540.030273438 735.740234375 540.030273438 c 3
 713.598681853 540.030273438 690.595489704 552.806929751 678 578 c 1
 687.570921215 592.361991845 696 599.861661579 696 627 c 3
 696 637.211920027 681.656639289 645.274414062 664.823242188 645.274414062 c 3
 589.980104771 645.274414062 470.279577527 407.537279721 431 335 c 1
EndSplineSet
EndChar
StartChar: uni01B7
Encoding: 439 439 561
Width: 618
Flags: HW
AnchorPoint: "Top" 330 699 basechar 0
AnchorPoint: "Bottom" 325 -15 basechar 0
LayerCount: 2
Fore
SplineSet
375 445 m 1
 467.96484375 442.310546875 580 380.493164062 580 237 c 3
 580 133.544921875 517.874023438 -10 301 -10 c 3
 256.797851562 -10 209.310546875 0.4443359375 170 18 c 0
 150.65234375 26.640625 151 24 141 -4 c 1
 109 0 l 1
 110 69 107 87 81 194 c 1
 115 200 l 1
 133 141 139.509765625 122.54296875 161 100 c 0
 196.271484375 63 270.502929688 33 324 33 c 3
 448.666992188 33 500 138.633789062 500 220 c 3
 500 304 408 436.6875 210 346 c 1
 200 373 l 1
 244.62890625 402.534179688 281.083007812 443.462890625 311 480 c 0
 352.62890625 530.83984375 395.142578125 583.23046875 435 635 c 0
 439 639 l 1
 225 639 l 2
 168 639 127 620 89 545 c 1
 61 563 l 1
 108 672 98 709 125 719 c 1
 145 692 180.990234375 682.872070312 193 682 c 0
 214.05078125 680.470703125 444.818359375 678.100585938 514 680.533203125 c 0
 525.415039062 680.934570312 533.982421875 681.420898438 539 682 c 1
 551 660 l 1
 531.573242188 637.099609375 l 0
 375 445 l 1
EndSplineSet
EndChar
StartChar: uni01BF
Encoding: 447 447 563
Width: 466
UnlinkRmOvrlpSave: 1
Flags: HW
AnchorPoint: "Top" 251 465 basechar 0
AnchorPoint: "Bottom" 286 -15 basechar 0
LayerCount: 2
Fore
SplineSet
162 -284 m 0
 164 -299 182.976148957 -303.31100931 194 -304 c 0
 210 -305 229 -307 243 -308 c 1
 242 -342 l 1
 203 -341 172 -339 130 -339 c 3
 100 -339 52 -344 22 -348 c 1
 19 -316 l 1
 30 -315 38.1817100136 -313.822162605 49 -311 c 0
 72 -305 77.3132247115 -293.942463001 80 -266 c 0
 85 -214 89 -122 89 31 c 3
 89 153 84.7139067635 272.944903477 81 293 c 0
 76 320 62 331 48 331 c 3
 38 331 15 322 6 322 c 1
 0 353 l 1
 37 360 94 385 136 424 c 1
 148 417.260869565 155 419.913043478 155 331 c 1
 157.859375 337.344827586 322.2734375 421.942528736 338 423 c 1
 376.945454545 423 440 346.127272727 440 272 c 3
 440 169.288917498 211.635087719 -29.5308641975 133 -72 c 1
 118.432617188 -51 l 1
 192.625923036 -13.4080638015 369 163.154235646 369 233 c 3
 369 297.296167411 325.411764706 348 291 348 c 3
 261.365853659 348 156 316.93994097 156 287 c 0
 156 216.48698455 156 151 156 64 c 3
 156 -27.9228366662 154.64577167 -228.843287522 162 -284 c 0
EndSplineSet
Substitution2: "smcp-1" uni01BF.smcp
Substitution2: "pcap-1" uni01BF.pcap
EndChar
StartChar: uni01EA
Encoding: 490 490 583
Width: 795
VWidth: 1159
UnlinkRmOvrlpSave: 1
Flags: HW
AnchorPoint: "Top" 510.828 699 basechar 0
LayerCount: 2
Fore
SplineSet
481.587890625 12.734375 m 1
 365.271984408 -37.2119140625 350.381875957 -131.171875 349.221679688 -143.720703125 c 0
 346.8359375 -179.603515625 354.171875 -230.658203125 404.350585938 -230.658203125 c 3
 408.36328125 -230.658203125 404.950195312 -231.174804688 414.86328125 -231.168945312 c 1
 414.86328125 -231.168945312 422.655273438 -244.303710938 424.084960938 -254.569335938 c 1
 387.750976562 -302.305664062 328.400390625 -337.888671875 286.8203125 -337.888671875 c 3
 237.640625 -337.888671875 200.836914062 -289.140625 212.475585938 -227.513671875 c 0
 231.510022675 -141.350585938 295.291321074 -33.017578125 481.248046875 53.453125 c 1
 481.587890625 12.734375 l 1
EndSplineSet
Refer: 1303 79 N 1 0 0 1 0 0 2
Position2: "cpsp-1" dx=0 dy=0 dh=50 dv=100
EndChar
StartChar: uni0220
Encoding: 544 544 598
Width: 644
Flags: HW
AnchorPoint: "Top" 476.938 699 basechar 0
LayerCount: 2
Fore
SplineSet
575.0859375 -213 m 1
 575.0859375 -213 565.834960938 -233 563.859375 -247 c 1
 530.438476562 -239.607421875 495.375 -235.372070312 457.721679688 -235.372070312 c 0
 418.975585938 -235.372070312 377.486328125 -239.856445312 332.221679688 -250 c 1
 332.221679688 -250 331.110351562 -227 331.661132812 -215 c 1
 404.591796875 -200.154296875 416.068359375 -194.717773438 435.793945312 -128.75 c 0
 452.451171875 -73.044921875 483.956054688 52.66796875 495.080078125 105 c 0
 522.059570312 231.9296875 558.856445312 421.485351562 567.56640625 474.25 c 0
 581.272460938 557.28515625 566.294921875 616.5 482.202148438 616.5 c 3
 399.158203125 616.5 321.180664062 591.5 256.1171875 554 c 1
 222.514648438 394.240234375 176.459960938 171.71875 161.907226562 103.25 c 0
 146.594726562 31.212890625 180.036132812 38.583984375 234.887695312 26 c 1
 234.887695312 26 225.998046875 3 222.022460938 -11 c 1
 172.243164062 -2.3984375 128.3125 2.4453125 85.4931640625 2.4453125 c 0
 48.66015625 2.4453125 12.650390625 -1.138671875 -25.552734375 -9 c 1
 -25.552734375 -9 -25.451171875 15 -23.625 33 c 1
 35.716796875 42.5517578125 67.427734375 52.6318359375 81.3671875 112 c 0
 95.345703125 171.532226562 119.319335938 286.786132812 132.383789062 348.25 c 0
 139.823242188 383.25 160.975585938 503.950195312 165.528320312 539 c 0
 172.615234375 593.5625 152.89453125 597 143.657226562 597 c 3
 131.9296875 597 107.34375 588 89.171875 586.25 c 1
 88.5712890625 622 l 1
 136.731445312 631.827148438 188.0625 647.166015625 258.48828125 695 c 1
 268.48046875 692.419921875 272.947265625 686.638671875 274.454101562 678 c 0
 277.751953125 659.0859375 270.008789062 618.4140625 264.500976562 592.5 c 1
 347.865234375 640.010742188 439.616210938 698.25 535.778320312 698.25 c 3
 635.875 698.25 682.69921875 628.25 656.2890625 504 c 0
 634.310546875 400.599609375 607.133789062 287.799804688 583.158203125 175 c 0
 551.013671875 23.7734375 519.115234375 -122.018554688 515.2109375 -167.25 c 0
 511.662109375 -208.36328125 534.526367188 -210.256835938 575.0859375 -213 c 1
EndSplineSet
EndChar
StartChar: uni027E
Encoding: 638 638 631
Width: 358
Flags: HW
AnchorPoint: "Top" 165.5 465 basechar 0
AnchorPoint: "Bottom" 145 -15 basechar 0
LayerCount: 2
Fore
SplineSet
160 352 m 0
 198 389 286.484375 422.183908046 294 423 c 1
 315 423 349 395 349 368 c 3
 349 337 320 316 281 316 c 1
 272.882352941 349.75 255.294117647 356 235 356 c 3
 221.829268293 356 188.816323543 344.734013813 175 324 c 0
 160 307 160 218.432989691 160 196 c 0
 160 157 161.185553521 61.3773357746 169 52 c 0
 179 40 189.018145158 36.3113659276 226 34 c 0
 242 33 260 33 274 32 c 1
 273 0 l 1
 234 1 162 4 120 4 c 3
 90 4 60 -1 30 -5 c 1
 28 28 l 1
 39 29 50 29 60 33 c 0
 70 37 84.7614449357 48.0180616964 87 76 c 0
 89 101 91 192 91 218 c 3
 91 261.152542373 119.735258602 312.794857059 160 352 c 0
EndSplineSet
EndChar
StartChar: tildecomb
Encoding: 771 771 504
Width: 0
VWidth: 1159
Flags: HW
AnchorPoint: "Top" -116 389 mark 0
AnchorPoint: "TopMark" -123.315 389 mark 0
AnchorPoint: "TopMark" -72.1445 538 basemark 0
LayerCount: 2
Fore
SplineSet
-252.388671875 435.353515625 m 1
 -213.573427431 494.629645531 -158.488588219 539.673828124 -156.556640624 539.673828124 c 3
 -112.386680099 539.673828124 -82.9343157045 520.10546875 -27.62109375 520.10546875 c 3
 -15.7019848893 520.10546875 -0.2734375 532.55078125 6.6796875 551.6484375 c 1
 41.80078125 534.5390625 l 1
 12.0688579955 478.756671504 -45.0321282844 424.10546875 -46.462890625 424.10546875 c 3
 -87.34375 424.10546875 -146.419097139 446.78125 -188.154296876 446.78125 c 3
 -201.606648473 446.78125 -207.875075673 429.244068083 -216.7734375 418.2890625 c 1
 -252.388671875 435.353515625 l 1
EndSplineSet
EndChar
StartChar: uni030A
Encoding: 778 778 648
Width: 0
VWidth: 1159
Flags: HW
AnchorPoint: "TopMark" -119.304 382 mark 0
AnchorPoint: "TopMark" -79.043 562 basemark 0
AnchorPoint: "Top" -114.54 395 mark 0
LayerCount: 2
Fore
SplineSet
-89.2578125 537.2578125 m 0
 -109.006944841 537.2578125 -125.163374312 523.477062055 -128.37109375 504.26953125 c 0
 -131.704171042 484.55241122 -117.190600618 464.7421875 -93.77734375 464.7421875 c 0
 -75.0289115361 464.7421875 -58.3783600365 478.232796215 -54.6640625 496.73046875 c 0
 -50.6877190978 517.425671475 -65.8454993725 537.2578125 -89.2578125 537.2578125 c 0
-75.4111328125 576.735351562 m 0
 -33.8310546875 576.735351562 -5.13590949763 544.064488688 -13.9736328125 502.485351562 c 0
 -23.443359375 457.934570312 -67.51171875 425.264648438 -107.607421875 425.264648438 c 0
 -149.1875 425.264648438 -178.514648438 454.96484375 -169.044921875 499.514648438 c 0
 -159.575195312 544.064453125 -115.505859375 576.735351562 -75.4111328125 576.735351562 c 0
EndSplineSet
EndChar
StartChar: uni0313
Encoding: 787 787 657
Width: 0
VWidth: 1159
Flags: HW
AnchorPoint: "TopMark" -178 410 mark 0
AnchorPoint: "TopMark" -167 631 basemark 0
AnchorPoint: "Top" -203 414 mark 0
LayerCount: 2
Fore
SplineSet
-226.483398438 445.419921875 m 1
 -235.49609375 465.669921875 l 1
 -205.7421875 482.6796875 -167.435546875 512.650390625 -174.659179688 537.759765625 c 0
 -179.706054688 555.580078125 -194.672851562 567.73046875 -208.940429688 576.639648438 c 0
 -212.125 578.259765625 -213.545898438 583.9296875 -213.376953125 588.790039062 c 1
 -213.20703125 593.650390625 -209.015625 597.700195312 -204.909179688 599.3203125 c 0
 -187.587890625 608.23046875 -174.17578125 621.190429688 -162.241210938 638.200195312 c 0
 -160.48046875 642.25 -154.697265625 645.490234375 -149.836914062 645.490234375 c 3
 -144.9765625 645.490234375 -141.040039062 642.25 -140.37109375 638.200195312 c 0
 -133.67578125 621.190429688 -121.978515625 608.23046875 -107.708984375 599.3203125 c 0
 -104.526367188 597.700195312 -103.856445312 593.650390625 -104.026367188 588.790039062 c 1
 -104.196289062 583.9296875 -125.014648438 498.0703125 -226.483398438 445.419921875 c 1
EndSplineSet
EndChar
StartChar: uni037F
Encoding: 895 895 696
Width: 369
Flags: HW
AnchorPoint: "Top" 230 699 basechar 0
LayerCount: 2
Fore
SplineSet
276 225 m 3
 276 145.419921875 237.09375 92.5693359375 193 52 c 0
 160.90625 22.4716796875 129.948242188 0 81 0 c 3
 57.9716796875 0 21.990234375 11 4 33 c 1
 5.224609375 62.953125 4 62.953125 64 104 c 1
 92.1669921875 90.7138671875 109.030273438 73 142 73 c 3
 204.142578125 73 194.265625 168.251953125 194.265625 227.524414062 c 3
 194.265625 254.978515625 183.017289626 588.221679688 174 614 c 0
 166.305880248 650 110.252489862 647 52 652 c 1
 56 692 l 1
 172 677 238 680 361 692 c 1
 363 649 l 1
 311.37956543 647 277.402685547 657.016601562 274 616 c 0
 267.63170856 547.684343929 266.291015625 478.698329057 266.291015625 403.026367188 c 3
 266.291015625 347.991977069 276 289.421203124 276 225 c 3
EndSplineSet
EndChar
StartChar: Upsilon
Encoding: 933 933 1341
Width: 689
VWidth: 1159
Flags: HW
AnchorPoint: "Top" 449.95 699 basechar 0
AnchorPoint: "Bottom" 297.715 -15 basechar 0
LayerCount: 2
Fore
SplineSet
439.34375 379 m 0
 427.653204306 349.252107584 417.911869938 316.516318219 409.782582469 283.000003762 c 0
 392.513785938 211.802322902 382.523082216 137.082120875 376.567382812 80 c 0
 372.497070312 40.98828125 391.446289062 36 471.525390625 32 c 1
 456.635742188 -11 l 1
 406.745117188 -5.4 360.145507812 -3 312.14453125 -3 c 0
 264.14453125 -3 214.745117187 -5.0625 159.254882812 -14 c 1
 156.915039062 28 l 1
 239.13671875 41.44 279.100977728 53.8154761969 290.16796875 100 c 0
 295.290004446 121.37516684 305.986491566 167.666013557 316.627573845 216.999997865 c 0
 331.068777423 283.952032635 345.426921358 356.508698222 345.573242188 380 c 0
 346.150390625 472.659179688 314.909179688 623.534179688 181.567382812 623.534179688 c 3
 163.80859375 623.534179688 143.671875 610.516601562 120.864257812 582 c 1
 104.89453125 611.370117188 l 1
 126.977539062 658.056640625 184.775390625 699.736328125 222.53515625 699.736328125 c 3
 410.221679688 699.736328125 386.870117188 498.013671875 391.3671875 371.123046875 c 1
 448.3125 498.013671875 514.650390625 699.736328125 677.814453125 699.736328125 c 3
 712.856445312 699.736328125 748.918945312 654.138671875 758.733398438 627.370117188 c 1
 729.252929688 598 l 1
 714.873046875 615.53125 699.608398438 623.534179688 683.7265625 623.534179688 c 3
 569.415039062 623.534179688 476.199773631 472.784247082 439.34375 379 c 0
EndSplineSet
Position2: "cpsp-1" dx=0 dy=0 dh=50 dv=100
Substitution2: "c2pc-1" upsilon.pcap
Substitution2: "c2sc-1" upsilon.smcp
EndChar
StartChar: zeta
Encoding: 950 950 1242
Width: 419
UnlinkRmOvrlpSave: 1
Flags: HMW
LayerCount: 2
Fore
SplineSet
34.26953125 130 m 0
 91.611328125 425 346.173828125 752 635.5625 754 c 1
 635.78515625 750 634.813476562 745 633.841796875 740 c 0
 628.592773438 713 611.150390625 685 585.068359375 664 c 1
 552.736328125 652 515.569335938 646 473.569335938 646 c 3
 396.569335938 646 318.76171875 683 333.729492188 760 c 0
 340.920898438 797 366.55859375 826 433.947265625 828 c 1
 433.55859375 826 433.780273438 822 432.80859375 817 c 0
 429.50390625 800 420.8671875 771 416.33984375 758 c 1
 392.368164062 753 378.368164062 753 375.453125 738 c 0
 371.922851562 719.837890625 416.325195312 690.45703125 471.229492188 680.259765625 c 1
 479.80859375 678.666015625 488.645507812 677.541015625 497.595703125 677 c 1
 332.791992188 642 105.478515625 342 69.517578125 157 c 0
 53.578125 75 109.995117188 72 148.995117188 72 c 3
 184.995117188 72 204.55078125 80 240.55078125 80 c 3
 330.55078125 80 354.025390625 31 341.780273438 -32 c 0
 327.784179688 -104 258.122070312 -164 187.122070312 -164 c 3
 149.122070312 -164 123.42578125 -147 107.758789062 -135 c 1
 115.646484375 -115 147.19921875 -71 160.587890625 -69 c 1
 176.254882812 -81 203.869140625 -119 240.869140625 -119 c 3
 261.869140625 -119 289.951171875 -98 295.782226562 -68 c 0
 304.334960938 -24 264.805664062 -1 222.805664062 -1 c 3
 193.805664062 -1 168.4453125 -8 133.4453125 -8 c 3
 40.4453125 -8 20.080078125 57 34.26953125 130 c 0
EndSplineSet
Substitution2: "pcap-1" z.pcap
Substitution2: "smcp-1" z.smcp
EndChar
StartChar: upsilon
Encoding: 965 965 1209
Width: 506
VWidth: 1043
Flags: HMW
AnchorPoint: "Top" 306.387 465 basechar 0
AnchorPoint: "Bottom" 195.084 -15 basechar 0
LayerCount: 2
Fore
SplineSet
208.728515625 333 m 0
 198.815429688 282 160.208984375 212 147.57421875 147 c 0
 131.829101562 66 186.135742188 47 225.135742188 47 c 3
 332.135742188 47 404.018554688 139 420.541015625 224 c 0
 442.505859375 337 361.450195312 347 310.450195312 347 c 1
 309.033203125 350 307.616210938 353 309.170898438 361 c 0
 313.447265625 383 351.028320312 422 359.583984375 430 c 1
 440.583984375 430 472.03515625 314 453.763671875 220 c 0
 432.1875 109 332.250976562 -9 198.250976562 -9 c 3
 115.250976562 -9 53.552734375 44 73.7685546875 148 c 0
 84.84765625 205 125.92578125 298 130.979492188 324 c 0
 135.061523438 345 127.782226562 359 112.782226562 359 c 3
 86.7822265625 359 67.0068359375 319 59.646484375 312 c 1
 39.9794921875 324 l 1
 44.5341796875 332 84.2509765625 418 154.250976562 418 c 3
 176.250976562 418 223.112304688 407 208.728515625 333 c 0
EndSplineSet
Substitution2: "pcap-1" upsilon.pcap
Substitution2: "smcp-1" upsilon.smcp
EndChar
StartChar: uni03CF
Encoding: 975 975 697
Width: 687
VWidth: 1159
UnlinkRmOvrlpSave: 1
Flags: HW
LayerCount: 2
Fore
SplineSet
524.150390625 685 m 1
 587.091796875 679.555664062 668.39453125 681.111328125 738.510742188 692 c 1
 740.513671875 656 l 1
 697.569335938 646 669.669921875 634.653320312 636.572265625 610 c 0
 527.827148438 529 418.276367188 449 310.337890625 367 c 1
 592.911132812 87 l 0
 621.46875 59 656.38671875 38 681.470703125 23 c 1
 672.805664062 -1 l 1
 642.110351562 -12.376953125 613.125 -23 580.529296875 -23 c 1
 580.529296875 -23 517.3984375 43.87109375 502.274414062 58 c 0
 481.081054688 77.798828125 325.096679688 232 239.423828125 316 c 1
 223.6796875 235 206.501953125 134.0859375 198.356445312 79 c 0
 191.998046875 36 223.609375 34 279.887695312 20 c 1
 270.056640625 -10 l 1
 195.388671875 2 116.360351562 7 14.0283203125 -5 c 1
 17.4423828125 28 l 1
 72.63671875 29 95.6494140625 35.0087890625 104.80078125 71 c 0
 147.262695312 238 182.46484375 417.969726562 209.490234375 589 c 0
 218.180664062 644 203.375 645 142.708007812 657 c 1
 154.733398438 688 l 1
 232.790039062 678 322.373046875 681 402.927734375 689 c 1
 399.708007812 657 l 1
 340.736328125 652 316.155273438 651.212890625 305.18359375 608 c 0
 283.85546875 524 264.3046875 444 247.393554688 357 c 1
 344.166992188 433 441.5625 504.498046875 536.518554688 584 c 0
 549.65625 595 563.474609375 603.015625 567.709960938 621 c 0
 573.436523438 645.314453125 553.668945312 651.657226562 517.90234375 658 c 1
 524.150390625 685 l 1
593.4453125 -8 m 1
 672.611328125 -2 l 1
 661.930664062 -21.3037109375 452.731445312 -165.619140625 401.571289062 -244 c 1
 265.959960938 -242 l 1
 267.345703125 -234.869140625 268.7421875 -227.688476562 270.146484375 -220.461914062 c 1
 386.130859375 -146.8671875 519.875976562 -58.142578125 593.4453125 -8 c 1
EndSplineSet
Position2: "cpsp-1" dx=0 dy=0 dh=50 dv=100
EndChar
StartChar: uni03F5
Encoding: 1013 1013 717
Width: 416
UnlinkRmOvrlpSave: 1
Flags: HW
LayerCount: 2
Fore
SplineSet
90 208 m 1
 150.578125 217.303710938 226.774414062 225.270507812 314 232 c 1
 316 186 l 1
 234.30078125 178.610351562 155.83203125 172.602539062 90 172 c 1
 90 208 l 1
EndSplineSet
Refer: 714 1010 N 1 0 0 1 0 0 2
EndChar
StartChar: afii10053
Encoding: 1028 1028 41
Width: 654
UnlinkRmOvrlpSave: 1
Flags: HW
AnchorPoint: "Top" 503 699 basechar 0
AnchorPoint: "Bottom" 340 -15 basechar 0
LayerCount: 2
Fore
SplineSet
229.853515625 374 m 1
 313.640625 378 425.561660199 378 443.982421875 380 c 0
 478.045898438 390 518.514648438 443 540.8671875 460 c 1
 579.890625 451 l 1
 543.68359375 377 534.296875 304 531.693359375 236 c 1
 480.213867188 223 l 1
 468.305664062 283 469.386266133 308.266335021 428.27734375 316 c 0
 372.248706921 325.616278953 341.123046875 324 220.202148438 326 c 1
 229.853515625 374 l 1
EndSplineSet
Refer: 1254 67 N 1 0 0 1 0 0 2
Position2: "cpsp-1" dx=0 dy=0 dh=50 dv=100
EndChar
StartChar: afii10057
Encoding: 1032 1032 44
Width: 337
Flags: HW
AnchorPoint: "Top" 259.037 699 basechar 0
LayerCount: 2
Fore
SplineSet
181.276367188 65 m 0
 164.361328125 -14.580078125 114.220703125 -67.4306640625 61.50390625 -108 c 0
 23.1337890625 -137.528320312 -12.6005859375 -160 -61.548828125 -160 c 3
 -84.5771484375 -160 -118.220703125 -149 -131.53515625 -127 c 1
 -123.943359375 -97.046875 -125.16796875 -97.046875 -56.443359375 -56 c 1
 -31.1005859375 -69.2861328125 -18.001953125 -87 14.9677734375 -87 c 3
 84.5107421875 -87 93.4716796875 45.853515625 111.043945312 128.524414062 c 0
 118.375 163.010742188 198.73828125 581.618164062 197.969726562 614 c 0
 198.684570312 650 147.506835938 647 96.046875 652 c 1
 108.548828125 692 l 1
 221.360351562 677 287.998046875 680 413.548828125 692 c 1
 406.409179688 649 l 1
 347.403320312 647 310.125 657.081054688 298.39453125 616 c 0
 264.975585938 498.962890625 240.576171875 375.547851562 212.408203125 243.026367188 c 0
 200.709960938 187.9921875 194.969726562 129.420898438 181.276367188 65 c 0
EndSplineSet
Position2: "cpsp-1" dx=0 dy=0 dh=50 dv=100
EndChar
StartChar: afii10028
Encoding: 1050 1050 17
Width: 705
Flags: HW
AnchorPoint: "Top" 424.521 699 basechar 0
AnchorPoint: "Bottom" 296.755 -15 basechar 0
LayerCount: 2
Fore
SplineSet
440.233398438 39 m 0
 324.307617188 138.147460938 330.375976562 284.313476562 213.111328125 316 c 1
 195.89453125 235 176.881835938 134.0859375 167.735351562 79 c 0
 160.595703125 36 192.169921875 34 248.194335938 20 c 1
 237.817382812 -10 l 1
 163.368164062 2 84.431640625 7 -18.119140625 -5 c 1
 -14.10546875 28 l 1
 41.107421875 29 64.2294921875 35.0087890625 74.03515625 71 c 0
 119.532226562 238 158.004882812 417.969726562 188.138671875 589 c 0
 197.830078125 644 183.041992188 645 122.592773438 657 c 1
 135.182617188 688 l 1
 212.631835938 676 302.26953125 679 383.39453125 689 c 1
 379.592773438 657 l 1
 320.530273438 652 295.935546875 651.212890625 284.177734375 608 c 0
 261.323242188 524 240.318359375 444 221.826171875 357 c 1
 319.98046875 433 418.67578125 504.498046875 515.076171875 584 c 0
 528.4140625 595 542.336914062 603.016601562 546.94140625 621 c 0
 552.830078125 644 533.10546875 650 497.380859375 656 c 1
 504.119140625 683 l 1
 566.631835938 676 648.056640625 678 719.032226562 692 c 1
 720.380859375 656 l 1
 677.254882812 646 649.0703125 634.771484375 615.602539062 610 c 0
 511.569335938 533 406.794921875 456.950195312 303.501953125 379 c 1
 423.408203125 322.103515625 451.721679688 131.958007812 556.358398438 49 c 0
 582.21484375 28.5 621.891601562 20.671875 647.494140625 12 c 1
 638.392578125 -12 l 1
 627.782226562 -12 612.693359375 -14 601.967773438 -14 c 3
 536.346679688 -14 473.131835938 10.8623046875 440.233398438 39 c 0
EndSplineSet
Position2: "cpsp-1" dx=0 dy=0 dh=50 dv=100
EndChar
StartChar: afii10072
Encoding: 1078 1078 55
Width: 688
Flags: HW
AnchorPoint: "Top" 397.836 465 basechar 0
AnchorPoint: "Bottom" 302.533 -15 basechar 0
LayerCount: 2
Fore
SplineSet
350.888671875 376 m 0
 353.145507812 386.768554688 353.490234375 396 358.000976562 403 c 1
 361.930664062 404 380.791015625 406 386.791015625 406 c 1
 390.791015625 406 411.791015625 406 413.860351562 405 c 1
 418.000976562 403 415.6171875 377.776367188 414.098632812 373 c 0
 381.594726562 270.764648438 360.36328125 133.168945312 342.741210938 30 c 0
 340.888671875 19.154296875 340.139648438 10 335.62890625 3 c 1
 331.69921875 2 304.838867188 0 298.838867188 0 c 1
 294.838867188 0 275.838867188 0 273.76953125 1 c 1
 269.62890625 3 272.059570312 28.208984375 273.53125 33 c 0
 305.52734375 137.135742188 329.5859375 274.35546875 350.888671875 376 c 0
661.897460938 335 m 1
 648.94140625 344.600585938 630.625 365 608.161132812 365 c 3
 569.6328125 365 534.334960938 320.8125 517.883789062 236.178710938 c 0
 500.203125 145.219726562 507.478515625 45 569.350585938 45 c 3
 595.559570312 45 612.254882812 49.5712890625 624.0625 53 c 1
 635.892578125 34 l 1
 617.857421875 17.5654296875 575.365234375 -8 533.665039062 -8 c 3
 479.260742188 -8 423.734375 59.2294921875 449.0859375 189.65234375 c 0
 473.455078125 315.021484375 560.279296875 421 639.715820312 421 c 3
 674.158203125 421 704.436523438 401.231445312 713.9765625 379 c 1
 661.897460938 335 l 1
26.283203125 78 m 1
 39.2392578125 68.3994140625 57.5556640625 48 80.01953125 48 c 3
 118.547851562 48 153.845703125 92.1875 170.296875 176.821289062 c 0
 187.977539062 267.780273438 180.702148438 368 118.830078125 368 c 3
 92.62109375 368 75.92578125 363.428710938 64.1181640625 360 c 1
 52.2880859375 379 l 1
 70.3232421875 395.434570312 112.815429688 421 154.515625 421 c 3
 208.919921875 421 264.446289062 353.770507812 239.094726562 223.34765625 c 0
 214.725585938 97.978515625 127.901367188 -8 48.46484375 -8 c 3
 14.0224609375 -8 -16.255859375 11.7685546875 -25.7958984375 34 c 1
 26.283203125 78 l 1
EndSplineSet
Refer: 487 58113 N 0.2898 0 0 1 199.6 207 2
EndChar
StartChar: afii10088
Encoding: 1094 1094 70
Width: 507
VWidth: 1159
Flags: HW
AnchorPoint: "Top" 297.864 465 basechar 0
AnchorPoint: "Bottom" 157.859 -15 basechar 0
LayerCount: 2
Fore
SplineSet
458 96 m 1
 478 87 l 1
 477.004882812 84.2763671875 474.884765625 79.1923828125 473.09375 69.978515625 c 0
 470.494140625 56.6025390625 469.55078125 43.4384765625 469.55078125 30.373046875 c 3
 469.55078125 0.474609375 476.15234375 -28.828125 476.15234375 -59.3486328125 c 3
 476.15234375 -142.916015625 428.0546875 -208.01953125 361.447265625 -208.01953125 c 3
 304.451171875 -208.01953125 278.655273438 -178.075195312 273.3359375 -162.2421875 c 1
 286.778320312 -146.299804688 l 1
 298.932617188 -154.55859375 315.002929688 -155.72265625 330.056640625 -155.72265625 c 3
 358 -155.72265625 434.1640625 -131.653320312 434.1640625 49.640625 c 3
 434.1640625 57.22265625 434.090820312 64.9892578125 433.977539062 73 c 1
 458 96 l 1
EndSplineSet
Refer: 519 117 N 1 0 0 1 2 0 2
EndChar
StartChar: afii10089
Encoding: 1095 1095 71
Width: 506
VWidth: 1159
Flags: HW
AnchorPoint: "Top" 296.863 465 basechar 0
AnchorPoint: "Bottom" 219.859 -15 basechar 0
LayerCount: 2
Fore
SplineSet
384.638671875 399 m 1
 389.250976562 402.200195312 418.178710938 407 428.939453125 407 c 1
 432.939453125 407 459.026367188 406 459.551757812 400 c 1
 450.288085938 323 401.69921875 287.9140625 378.986328125 155 c 0
 374.356445312 127.903320312 370.67578125 89.9677734375 371.334960938 71 c 1
 370.735351562 55 375.434570312 47 384.434570312 47 c 3
 395.434570312 47 423.189453125 61.2373046875 458.53515625 103 c 1
 476.935546875 87 l 1
 454.05078125 51.3876953125 427.345703125 26.314453125 402.671875 10 c 0
 387.546875 0 366.333984375 -9 345.333984375 -9 c 3
 315.630859375 -9 302.842773438 11.7080078125 302.219726562 39.443359375 c 0
 301.005859375 93.470703125 309.301757812 159.5703125 321.146484375 209 c 1
 279.624023438 172.911132812 209.375 106 144.94921875 106 c 3
 86.9365234375 106 79.7568359375 156.943359375 97.677734375 232 c 0
 106.619140625 269.44921875 114.921875 282.407226562 119.375976562 322 c 0
 120.500976562 332 121.80078125 340 117.712890625 341 c 1
 106.712890625 341 66.1748046875 290 53.400390625 276 c 1
 38 292 l 1
 60.23828125 335 123.151367188 416 170.151367188 416 c 3
 200.151367188 416 208.901367188 396 205.263671875 369 c 1
 201.779296875 334.354492188 189.220703125 307.622070312 178.140625 261 c 0
 167.196289062 214.946289062 167.750976562 171 203 171 c 3
 230.793945312 171 290.588867188 204.22265625 330.9921875 254 c 1
 333.826171875 264.36328125 345.700195312 295.428710938 346.475585938 298 c 0
 351.900390625 316 360.758789062 343.328125 367.05078125 360 c 0
 373.017578125 375.810546875 380.21875 389.513671875 384.638671875 399 c 1
EndSplineSet
EndChar
StartChar: uni0593
Encoding: 1427 1427 731
Width: 0
Flags: HW
LayerCount: 2
Fore
SplineSet
331.080078125 873.600585938 m 1
 340.34375 843.543945312 l 1
 301.966796875 830.15234375 l 1
 340.475585938 791.080078125 l 1
 340.475585938 765.200195312 l 1
 309.14453125 755.640625 l 1
 341.51953125 717.912109375 l 1
 341.51953125 695.120117188 l 1
 182.83203125 643.919921875 l 1
 173.48046875 675.064453125 l 1
 208 684 l 1
 176.567382812 725.440429688 l 1
 176.567382812 748.3203125 l 1
 213 761 l 1
 178.65625 797.608398438 l 1
 178.65625 825.576171875 l 1
 331.080078125 873.600585938 l 1
EndSplineSet
EndChar
StartChar: uni0596
Encoding: 1430 1430 734
Width: 0
Flags: HW
AnchorPoint: "HbBottom" 260 0 mark 0
LayerCount: 2
Fore
SplineSet
241.436523438 -69.0048828125 m 1
 261.867187499 -128.984374999 280.930067576 -161.332202089 345.53515625 -175.966796875 c 1
 320.943359375 -227.831054688 l 1
 262.728515625 -201.78125 222.291992188 -164.205078125 217.487304688 -72.9677734375 c 1
 241.436523438 -69.0048828125 l 1
EndSplineSet
EndChar
StartChar: uni05A9
Encoding: 1449 1449 753
Width: 0
Flags: HW
LayerCount: 2
Fore
SplineSet
134.454101562 711.69921875 m 1
 157.73828125 738.680664062 l 1
 222.544921875 684.30078125 l 1
 199.26171875 657.319335938 l 1
 134.454101562 711.69921875 l 1
78.53125 819.763671876 m 3
 49.7493879269 819.763671876 45.8984375 800.230904411 45.8984375 782.017578124 c 3
 45.8984375 758.049355149 70.415038795 727 99 727 c 3
 136.92969262 727 134 755.510149274 134 766 c 3
 134 794.94092327 110.300028967 819.763671876 78.53125 819.763671876 c 3
91.8056640625 855 m 3
 136.26595982 855 172 816.733597587 172 770.8984375 c 3
 172 727.016233648 138.421979549 691 92.408203125 691 c 3
 45.5619173795 691 8 727.016233648 8 770.8984375 c 3
 8 815.892472547 46.3236325068 855 91.8056640625 855 c 3
EndSplineSet
EndChar
StartChar: uni05C7
Encoding: 1479 1479 764
Width: 0
UnlinkRmOvrlpSave: 1
Flags: HW
LayerCount: 2
Fore
SplineSet
272.249023438 -245 m 1
 245.249023438 -245 l 1
 260.541992188 -99.5 l 1
 287.541992188 -99.5 l 1
 272.249023438 -245 l 1
215.990234375 -237.952148438 m 3
 215.990234375 -214.235351562 237.24609375 -195 263.504882812 -195 c 3
 284.7734375 -195 301.990234375 -214.235351562 301.990234375 -237.952148438 c 3
 301.990234375 -261.671875 280.729492188 -281 254.465820312 -281 c 3
 233.202148438 -281 215.990234375 -261.671875 215.990234375 -237.952148438 c 3
EndSplineSet
Refer: 130 1463 N 1 0 0 1 0 0 2
EndChar
StartChar: afii57673
Encoding: 1497 1497 104
Width: 228
UnlinkRmOvrlpSave: 1
Flags: HW
AnchorPoint: "HbMiddle" 93 200 basechar 0
AnchorPoint: "HbTop" 160 611.32 basechar 0
AnchorPoint: "HbBottom" 59 0 basechar 0
AnchorPoint: "HbTopLeft" 82.68 619.44 basechar 0
LayerCount: 2
Back
SplineSet
103.666992188 601.48046875 m 1
 156.267211877 564.566582686 209.939458643 545 224.047851562 514.599609375 c 1
 237.953913875 490.090447918 236.541033812 469.066889859 234.449492365 445.563478196 c 1
 229.858005516 428.348553183 222.001072555 397.586372036 115.793945312 261.759765625 c 1
 81.8583984375 282.120117188 l 1
 99.2639006362 304.716796875 119.955818868 333.026545776 136.155273438 360.959960938 c 0
 108.48046875 326.703125 89.004049716 351.141234464 103.18359375 329.6875 c 0
 39.376953125 338.29296875 18.5556640625 364.302734375 10.0966796875 399.583984375 c 1
 22.5221703193 461.569778499 33.1864721519 525.326186512 103.666992188 601.48046875 c 1
EndSplineSet
Fore
SplineSet
103.666992188 601.48046875 m 1
 156.267211877 564.566582686 209.939458643 545 224.047851562 514.599609375 c 1
 237.953548076 483.700099289 240.540705179 446.195004636 234.44921875 427.563476562 c 1
 225.222975123 394 204.795898438 347 105 217 c 1
 71.064453125 237.360351562 l 1
 85.2646484375 261.95703125 95.744140625 293.622070312 101.177734375 316.512695312 c 0
 102.933193321 323.908086701 96.6669921875 327.102539062 91 330 c 0
 61.81640625 344.919921875 19.931625446 343 10.0966796875 399.583984375 c 1
 22.5221703193 461.569778499 33.1864721519 525.326186512 103.666992188 601.48046875 c 1
EndSplineSet
EndChar
StartChar: afii57679
Encoding: 1503 1503 110
Width: 278
UnlinkRmOvrlpSave: 1
Flags: HW
AnchorPoint: "HbTop" 163 619.44 basechar 0
AnchorPoint: "HbMiddle" 101 284 basechar 0
AnchorPoint: "HbBottom" 76 0 basechar 0
AnchorPoint: "HbTopLeft" 85.68 619.44 basechar 0
LayerCount: 2
Back
SplineSet
203.328125 294.639648438 m 1
 213.9453125 326.301757812 203.815429688 369.149414062 175.888671875 394.46875 c 1
 157.86897404 408.17578125 94.6957959126 426.110351562 76.7490234375 445.240234375 c 1
 67.4355468741 478.040039062 84.2070312498 527.240234375 103.297851562 576.440429688 c 1
 109.494140625 574.120117188 115.690429688 571.799804688 121.885742188 569.48046875 c 1
 128 567 132.29756517 566.365520647 139.053710938 563.759765625 c 0
 167.713507742 552.706065479 188.764850631 538.897460938 205 520 c 1
 240.501953125 482.265625 251.188476561 423.577148438 242.795898438 369.879882812 c 1025
EndSplineSet
Fore
SplineSet
78.40234375 575.440429688 m 1
 144.372317667 550.883405237 204.232257887 533.598435294 238 465.919921875 c 1
 236.345177772 371.67658208 238.038330098 265.569246888 230.086914062 182.120117188 c 0
 221.051888505 82.2162514601 211.683593925 -12.1374427693 203.84375 -89.83984375 c 1
 167.56191289 -142.947881947 127.246922279 -198.100499558 97.345703125 -245.080078125 c 1
 78.5615234375 -232 l 1
 125.98389779 -56.8699389212 168.431241881 108.788856751 183.888883812 236.051922688 c 1
 148.032451113 320.437526572 118.133576965 264.815204799 37.0078125 338.766601562 c 1
 22.2892794576 397.934611367 48.5232612401 486.687520527 78.40234375 575.440429688 c 1
EndSplineSet
EndChar
StartChar: uni1E9F
Encoding: 7839 7839 772
Width: 506
Flags: HW
LayerCount: 2
Fore
SplineSet
232 369 m 3
 153.875 369 107 299.952380952 107 224 c 0
 107 121 177 25 264 25 c 0
 346 25 394 99 394 178 c 0
 394 297.74611399 306.377358491 369 232 369 c 3
172.500866655 399.043705812 m 1
 103.49266457 424.875865582 49 457.814098098 49 534 c 0
 49 575.014218009 96.7835920316 658.613860946 160 704 c 0
 199 732 236 756 295 756 c 0
 341.355140187 756 413.785046729 738 450 702 c 1
 449 675 450 675 401 638 c 1
 344.666666667 665 299.888888889 701 245 701 c 0
 143.177966102 701 102 589.833358441 102 551 c 0
 102 462.428229982 247.169545836 431.9680234 317.40625 403.919921875 c 0
 410.155384473 366.881778201 472 289.054221278 472 202 c 0
 472 75 378 -14 255 -14 c 0
 130 -14 31 68 31 191 c 0
 31 303.384182315 100.174311277 370.164559418 172.500866655 399.043705812 c 1
EndSplineSet
EndChar
StartChar: uni1EFD
Encoding: 7933 7933 777
Width: 414
Flags: HW
LayerCount: 2
Fore
SplineSet
243.512695312 423 m 1
 243.512695312 423 250.391601562 408.198446685 253.703125 403.591796875 c 1
 172 362 112.91796875 289.657078999 112.91796875 190.092773438 c 3
 112.91796875 109.816638771 150.40625 20.7978515625 233.837890625 20.7978515625 c 3
 276.34375 20.7978515625 307.875976562 64.2162176915 307.875976562 113.831054688 c 3
 307.875976562 186.959510006 272.176570995 239.249023438 226.6171875 239.249023438 c 3
 222.502929688 239.249023438 220.004882812 238.723632812 217 238 c 1
 209 252 l 1
 215.377375232 268.674485521 231.265492568 280.345703125 250.805664062 280.345703125 c 3
 317.290039062 280.345703125 382 214.451171875 382 139.948242188 c 3
 382 58.5546875 290.5859375 -10 204.965820312 -10 c 3
 90.609375 -10 35 89.0224609375 35 158.150390625 c 3
 35 285.209960938 135 384 243.512695312 423 c 1
EndSplineSet
EndChar
StartChar: uni1FFE
Encoding: 8190 8190 857
Width: 278
Flags: HW
AnchorPoint: "Top" 212.693 464 mark 0
LayerCount: 2
Fore
SplineSet
258.702148438 494 m 1
 206.024414062 494 148.625 514.379882812 179.966796875 595 c 0
 207.146484375 664.912109375 273.494140625 681.9453125 284.180664062 689.599609375 c 0
 286.334960938 691.180664062 291.825195312 692.799804688 296.625 692.799804688 c 3
 301.424804688 692.799804688 306.509765625 689.903320312 305.025390625 685.599609375 c 0
 300.3984375 672.174804688 307.314453125 646.341796875 312.1640625 641.200195312 c 0
 314.604492188 638.61328125 315.587890625 635.599609375 313.721679688 630.799804688 c 0
 311.85546875 626 308.07421875 620.541992188 303.456054688 618.799804688 c 0
 265.7734375 603.379882812 231.446289062 614.237304688 216.192382812 575 c 0
 200.493164062 534.618164062 232.05078125 516 268.254882812 516 c 1
 258.702148438 494 l 1
EndSplineSet
EndChar
StartChar: quotereversed
Encoding: 8219 8219 434
Width: 200
VWidth: 1159
Flags: HW
LayerCount: 2
Fore
SplineSet
252.751953125 433 m 1
 67.2978515625 527 105.94140625 648 105.96484375 651 c 1
 107.150390625 659 113.982421875 665 121.455078125 668 c 0
 149.479492188 684.4765625 178.963867188 706 193.239257812 729 c 0
 197.321289062 736.888671875 207.71484375 744 215.71484375 744 c 3
 224.159179688 744 231.426757812 737 233.471679688 730 c 0
 246.891601562 706.442382812 261.47265625 682 285.455078125 668 c 0
 292.881835938 665.057617188 296.18359375 659.142578125 294.96484375 651 c 0
 293.817382812 643.166992188 288.317382812 633.333007812 281 631 c 0
 251.462890625 617.0390625 216.788085938 596 199.055664062 565 c 0
 167.712890625 512.84375 236.875 473 271.845703125 467 c 1
 252.751953125 433 l 1
EndSplineSet
Position2: "Extra space for context kern-1" dx=35 dy=0 dh=70 dv=0
Position2: "cpsp-1" dx=0 dy=0 dh=7 dv=14
EndChar
StartChar: dagger
Encoding: 8224 8224 198
Width: 442
Flags: HW
LayerCount: 2
Fore
SplineSet
316 370 m 1
 260 262 258 250 234 -18 c 1
 208 -18 l 1
 180 266 178.880859376 282.899414062 126 370 c 1
 182 440.535947712 192 459.411764705 208 522 c 1
 128 502 l 2
 66.3069281172 482 72.3636363636 458 44 458 c 3
 53.9356884267 458 5 507 5 534 c 3
 5 561.691470071 57.916015625 612 46 612 c 3
 72.9736842105 612 73.2222369267 590 128 572 c 2
 208 552 l 1
 186 623 l 2
 172 666.601325356 144 684.743902439 144 706 c 3
 144 705.945985373 194.747200147 747.000004958 222 747 c 1
 249.137723104 746.999994957 300 705.944487245 300 710 c 3
 300 686.178571429 272 668.329078352 258 623 c 2
 236 552 l 1
 316 572 l 2
 376.242035743 592 369.947368421 614 398 614 c 3
 386.487181061 614 439 565.332249773 439 538 c 3
 439 511.347635566 385.349184102 460 396 460 c 3
 369.333333333 460 370.444536057 484 316 502 c 2
 234 522 l 1
 250 460.405228758 260 441.529411765 316 370 c 1
EndSplineSet
EndChar
StartChar: uni2035
Encoding: 8245 8245 879
Width: 148
Flags: HW
LayerCount: 2
Fore
SplineSet
136.3515625 467.853515625 m 1
 94.57421875 451.21484375 l 1
 115.53542378 359.207059462 -43.2296668778 817.261694245 -28 720 c 1
 93.5 749.18359375 l 1
 101.228288953 655.971679688 115.352025061 569.49609375 136.3515625 467.853515625 c 1
EndSplineSet
EndChar
StartChar: lira
Encoding: 8356 8356 328
Width: 509
UnlinkRmOvrlpSave: 1
Flags: HW
LayerCount: 2
Fore
SplineSet
78.6474609375 426 m 1
 224.934570312 428.061523438 386.594726562 425.720703125 487.385742188 453 c 1
 478.444335938 378 l 1
 408.80078125 379.123046875 304.349609375 377.848632812 71.0205078125 376 c 1
 78.6474609375 426 l 1
51.6513671875 299 m 1
 197.938476562 301.061523438 359.6015625 298.720703125 460.392578125 326 c 1
 451.44921875 251 l 1
 381.805664062 252.123046875 277.354492188 250.848632812 44.0244140625 249 c 1
 51.6513671875 299 l 1
177.966796875 324 m 0
 194.196289062 400.356445312 203.399414062 445.0078125 221.83984375 521 c 0
 237.124023438 583.965820312 250.477539062 601.177734375 324.298828125 669 c 0
 382.400390625 724.418945312 424.3671875 753 498.153320312 753 c 3
 554.65234375 753 569.041992188 732.087890625 627.989257812 724 c 1
 569.401367188 675.701171875 536.794921875 646.298828125 478.208007812 598 c 1
 480.830078125 634.029296875 494.860351562 675 425.575195312 675 c 3
 409.563476562 675 412.552734375 694.927734375 414.825195312 695 c 0
 374.806640625 658.912109375 376.139648438 630.798828125 354.729492188 544 c 0
 332.685546875 454.079101562 336.669921875 459.037109375 317.744140625 370 c 0
 286.002929688 220.671875 249.881835938 189.408203125 147.41796875 105 c 1
 217.946289062 76.5 188.16796875 90 322.227539062 90 c 3
 414.9375 90 502.14453125 174.28515625 457.73046875 130 c 1
 464.705078125 124 471.9296875 118 478.904296875 112 c 1
 428.973632812 61 392.778320312 31 350.84765625 -20 c 1
 304.103515625 -20.0029296875 110.123046875 12 -0.1533203125 -20.0029296875 c 1
 -13.263671875 3 l 1
 121.192382812 107.4140625 148.715820312 186.384765625 177.966796875 324 c 0
EndSplineSet
EndChar
StartChar: Euro
Encoding: 8364 8364 1273
Width: 503
UnlinkRmOvrlpSave: 1
Flags: HW
LayerCount: 2
Fore
SplineSet
124.40625 325 m 1
 407.40625 325 l 1
 404.430664062 311 l 1
 314.952148438 257 l 1
 29.9521484375 257 l 1
 32.0771484375 267 l 1
 124.40625 325 l 1
148.850585938 440 m 1
 479.850585938 440 l 1
 476.873046875 426 l 1
 387.395507812 372 l 1
 54.3955078125 372 l 1
 56.521484375 382 l 1
 148.850585938 440 l 1
115.516601562 302 m 0
 141.151367188 422.6015625 179.071289062 513.345703125 284.8828125 586 c 0
 349.2265625 624.396484375 372.81640625 671 441.950195312 671 c 3
 508.344726562 671 511.14453125 657.796875 595.998046875 643 c 1
 538.186523438 594.651367188 506.029296875 565.348632812 448.216796875 517 c 1
 436.620117188 564.296875 454.247070312 601 379.071289062 601 c 3
 351.188476562 601 352.607421875 600.708984375 341.284179688 602 c 0
 253.040039062 553.6796875 257.71484375 444.069335938 233.043945312 328 c 0
 208.612304688 213.061523438 228.689453125 72 314.627929688 72 c 3
 372.284179688 72 434.111328125 139.65234375 457.758789062 162 c 1
 463.310546875 156.75 467.01953125 152.25 472.5703125 147 c 1
 420.241210938 88 343.41796875 -6 242.049804688 -6 c 3
 107.106445312 -6 90.94140625 186.381835938 115.516601562 302 c 0
EndSplineSet
EndChar
StartChar: uni2661
Encoding: 9825 9825 991
Width: 674
Flags: HW
LayerCount: 2
Fore
SplineSet
93.25390625 498.337890625 m 0
 93.25390625 363.643554688 230.994140625 273.56640625 312.303710938 134.606445312 c 0
 322.810546875 116.647460938 330.921875 100.794921875 337.28515625 87.107421875 c 1
 343.576171875 100.909179688 351.521484375 116.727539062 361.983398438 134.606445312 c 0
 439.943359375 267.844726562 581.033203125 365.30859375 581.033203125 498.337890625 c 0
 581.033203125 561.374023438 543.952148438 615.725585938 488.333007812 615.725585938 c 0
 442.8828125 615.725585938 382.995117188 574.96484375 366.059570312 505.698242188 c 0
 361.3984375 486.633789062 349.151367188 458.16015625 337.165039062 458.16015625 c 0
 325.801757812 458.16015625 312.86328125 486.41796875 308.090820312 505.450195312 c 0
 291.307617188 572.380859375 233.635742188 615.725585938 185.954101562 615.725585938 c 0
 130.333984375 615.725585938 93.25390625 561.374023438 93.25390625 498.337890625 c 0
EndSplineSet
Refer: 296 9829 N 1 0 0 1 -0.162383 0 2
EndChar
StartChar: a.pcap
Encoding: 57347 57347 1
Width: 453
Flags: HW
AnchorPoint: "Ogonek" 304.275 27 basechar 0
AnchorPoint: "Top" 300.375 465 basechar 0
AnchorPoint: "Bottom" 187.348 -15 basechar 0
LayerCount: 2
Back
SplineSet
171.858398438 168.09375 m 1
 201.12109375 163.279296875 245.022460938 163.975585938 272.956054688 163.975585938 c 1
 261.3515625 219.15625 256.065429688 228.901367188 242.643554688 282.916992188 c 1
 209.52734375 227.40234375 201.352539062 215.76171875 171.858398438 168.09375 c 1
257.821289062 -6.7275390625 m 1
 257.821289062 -6.7275390625 256.802734375 10.3798828125 256.265625 17.8095703125 c 1
 274.708007812 22.734375 295.265625 36.763671875 293.646484375 44.259765625 c 0
 290.209960938 82.2109375 283.306640625 97.361328125 278.366210938 131.54296875 c 1
 258.439453125 138.333984375 185.32421875 142.833007812 153.44140625 138.177734375 c 1
 132.411132812 103.774414062 117.37890625 84.0556640625 100.250976562 50.7568359375 c 0
 93.4609375 36.9462890625 110.912109375 17.580078125 149.471679688 22.40625 c 1
 142.415039062 -6.7275390625 l 1
 124.229492188 -2.5400390625 88.96484375 -0.3525390625 56.1396484375 -0.3525390625 c 0
 32.974609375 -0.3525390625 11.025390625 -1.44140625 -2.8515625 -3.6865234375 c 1
 -2.69921875 -2.0732421875 -2.091796875 12.4873046875 -1.138671875 21.599609375 c 1
 29.5126953125 27.0771484375 52.626953125 42.8046875 55.921875 47.451171875 c 0
 134.62890625 166.268554688 204.397460938 274.791015625 262.387695312 371.904296875 c 0
 275.40234375 393.705078125 271.041015625 389.572265625 279.061523438 414.827148438 c 1
 309.859375 414.500976562 l 1
 309.651367188 394.877929688 306.458007812 395.7578125 310.010742188 373.374023438 c 0
 327.844726562 244.7421875 340.557617188 160.876953125 378.291992188 37.1630859375 c 0
 382.229492188 26.3779296875 399.989257812 20.4306640625 410.233398438 20.689453125 c 1
 409.823242188 18.99609375 406.305664062 4.6884765625 404.211914062 -3.1103515625 c 1
 387.512695312 -0.5166015625 363.888671875 0.9736328125 339.60546875 0.9736328125 c 0
 309.317382812 0.9736328125 278.00390625 -1.3447265625 257.821289062 -6.7275390625 c 1
EndSplineSet
Fore
SplineSet
152.650390625 151 m 1
 162.26171875 142.25 216.796875 146 227.502929688 146 c 1
 224.384765625 168.100585938 207.319335938 211.209960938 198 228 c 1
 190.311523438 213.391601562 159.479492188 163.521484375 152.650390625 151 c 1
192.520507812 -9 m 1
 192.520507812 -9 194.958984375 11.8798828125 195.685546875 20 c 1
 214.637695312 21.6923828125 231.517624947 50.1799220306 233.1875 60 c 0
 237.813476562 87.2041015625 234.450195312 81.6591796875 234 106 c 1
 225.565429688 120 149.1796875 126 130 115 c 1
 117.319335938 91.9423828125 118.745440018 99.5249908313 107.374023438 75 c 0
 96.71875 52.01953125 107 20 142.171875 27 c 1
 141.9453125 -7 l 1
 112.5859375 -2.9169921875 92.240234375 -0.875 39.0546875 -0.875 c 3
 10.408203125 -0.875 -16.6923828125 -1.9169921875 -33.4169921875 -4 c 1
 -32.9599609375 -1.845703125 -33.2763671875 14.3076171875 -32.4658203125 24 c 1
 1.462890625 31.7998046875 38.3720703125 55.4296875 42.8251953125 63 c 0
 119.373046875 176.141601562 191.350183466 280.836137076 243.504882812 372 c 0
 254.532225014 391.275254684 261 399 262.644531249 415 c 1
 306.644531249 415 l 1
 305.893554688 404 308.678827842 393.320618768 310.716796875 373 c 0
 323.654296875 244 334.095703125 165.368164062 378.297851562 37 c 0
 383.193359375 25.880859375 389.326171875 21 401.897460938 21 c 1
 401.471679688 19 402.496093749 5 403.795898438 -3 c 1
 376.497070312 -0.380859375 338.354492188 1.0947265625 299.233398438 1.0947265625 c 3
 250.962890626 1.0947265625 223.978515625 -1.97265625 192.520507812 -9 c 1
EndSplineSet
EndChar
StartChar: h.pcap
Encoding: 57354 57354 293
Width: 579
Flags: HW
AnchorPoint: "Bottom" 248.238 -15 basechar 0
AnchorPoint: "Top" 354.266 465 basechar 0
LayerCount: 2
Back
SplineSet
100.861328125 403.361328125 m 1
 136.393554688 400.098632812 167.852539062 397.086914062 201.903320312 397.086914062 c 0
 222.825195312 397.086914062 244.724609375 398.223632812 269.149414062 401.137695312 c 1
 265.8359375 376.922851562 l 1
 251.940429688 373.938476562 223.404296875 372.796875 217.991210938 360.094726562 c 1
 209.094726562 340.057617188 194.857421875 270.638671875 181.935546875 213.82421875 c 1
 430.798828125 214.549804688 l 1
 437.026367188 248.4609375 444.02734375 288.05078125 451.77734375 336.55859375 c 0
 456.981445312 371.477539062 433.778320312 370.640625 412.66796875 379.387695312 c 1
 420.225585938 401.794921875 l 1
 442.2734375 397.375 464.724609375 394.986328125 487.984375 394.986328125 c 0
 515.771484375 394.986328125 544.709960938 398.395507812 575.489257812 405.826171875 c 1
 574.96484375 381.611328125 l 1
 548.025390625 374.231445312 539.688476562 372.1796875 531.498046875 346.34375 c 0
 514.263671875 289.916015625 490.471679688 194.372070312 477.614257812 126 c 0
 470.475585938 88.0390625 466.708007812 58.453125 469.3046875 48.5888671875 c 0
 470.3515625 19.1142578125 486.967773438 18.0927734375 502.810546875 15.0908203125 c 1
 502.810546875 15.0908203125 496.555664062 -1.025390625 495.704101562 -7.9599609375 c 1
 475.901367188 -3.4169921875 450.245117188 -0.7900390625 423.168945312 -0.7900390625 c 0
 395.87109375 -0.7900390625 367.131835938 -3.4599609375 341.494140625 -9.52734375 c 1
 341.5 -7.833984375 340.73046875 5.5751953125 340.900390625 13.6162109375 c 1
 367.849609375 21.818359375 382.240234375 24.3720703125 391.685546875 53.2890625 c 0
 406.4453125 103.581054688 413.35546875 132.25390625 425.170898438 185.59765625 c 1
 175.44921875 186.323242188 l 1
 165.00390625 139.279296875 155.293945312 90.3388671875 150.577148438 51.671875 c 0
 145.455078125 19.806640625 174.815429688 20.8720703125 191.923828125 15.3447265625 c 1
 191.923828125 15.3447265625 186.002929688 -2.015625 184.159179688 -8.951171875 c 1
 155.407226562 -3.8271484375 124.143554688 -0.93359375 93.939453125 -0.93359375 c 0
 67.919921875 -0.93359375 42.6875 -3.080078125 20.525390625 -7.798828125 c 1
 20.525390625 -7.798828125 20.564453125 10.541015625 21.3076171875 19.45703125 c 1
 41.306640625 24.7314453125 64.109375 23.79296875 73.3369140625 53.2841796875 c 0
 91.0283203125 112.725585938 111.33203125 202.5 123.819335938 268 c 0
 131.920898438 310.4921875 136.732421875 342.76953125 135.408203125 349.920898438 c 0
 135.315429688 373.846679688 115.331054688 375.33203125 94.1376953125 378.489257812 c 1
 100.861328125 403.361328125 l 1
EndSplineSet
Fore
SplineSet
84.150390625 409 m 1
 131.031249999 405.400390624 172.307617188 401.797851562 217.277343751 401.797851562 c 3
 237.751953125 401.797851562 260.363281251 403.23828125 284.725585938 407 c 1
 281.624023438 383 l 1
 309.027343751 386 256.755859374 372.23046875 249.161132812 362 c 1
 235.805664062 342.534179688 222.64453125 274.218750001 207.552734374 218 c 1
 369.9765625 220 l 1
 373.842773436 247.58984375 380.677734375 279.752929688 385.019531249 319 c 0
 392.182617188 371.517578125 370.650390625 382 369.048828126 385 c 1
 376.937499999 408 l 1
 398.94140625 403.771484375 421.237304688 399.9375 444.750976562 399.9375 c 3
 481.037109375 399.9375 518.861328125 403.725585938 558.788085938 412 c 1
 557.686523438 388 l 1
 542.224609375 384.305664062 532.072265626 372.184570312 517.995117188 333 c 0
 496.553710938 284.153320312 470.438476562 203.788085936 457.476562499 142.805664062 c 0
 450.454101562 109.763671875 451.222656249 81.4609375 460.15625 75 c 0
 464.700195312 29.802734375 484.616210936 16 478.678710938 21 c 1
 478.678710938 21 472.277343749 5 470.789062499 -2 c 1
 448.660156251 2.392578125 420.765625001 4.8798828125 391.300781249 4.8798828125 c 3
 358.067382812 4.8798828125 323.015625 2.1435546875 291.364257812 -4 c 1
 291.789062499 -2 289.765624999 12 290.465820312 20 c 1
 295.307617188 23 312.394531251 36.3564453125 329.645507814 82 c 0
 345.811523438 121.097656249 352.369140625 144.556640625 362.75 186 c 1
 198.75 186 l 1
 191.772460936 148.469726562 183.637695312 110.19140625 180.006835937 79 c 0
 171.375 28.9814453125 213.540039062 20 200.678710938 21 c 1
 200.678710938 21 194.064453126 4 192.577148438 -3 c 1
 157.327148438 2.2490234375 118.034179688 5.0185546875 80.6708984375 5.0185546875 c 3
 50.5771484375 5.0185546875 21.296875 2.7509765625 -4.2109375 -2 c 1
 -4.2109375 -2 -2.9599609375 18 -1.833984375 28 c 1
 -1.349609375 30.7939453125 34.3076171875 36.396484375 49.4326171875 81 c 0
 71.0029296875 133.951171874 91.827148438 213.912109375 104.315429688 272.6640625 c 0
 111.852539062 308.123046875 113.029296875 335.469726562 108.696289064 341 c 0
 106.132812501 375.551757812 80.7734375 382.807617188 76.623046875 383 c 1
 84.150390625 409 l 1
EndSplineSet
EndChar
StartChar: p.pcap
Encoding: 57362 57362 399
Width: 430
Flags: HW
AnchorPoint: "Top" 278.993 465 basechar 0
AnchorPoint: "Bottom" 114.967 -15 basechar 0
LayerCount: 2
Back
SplineSet
205.87890625 159.635742188 m 5xd0
 255.123046875 159.635742188 317.860351562 181.87890625 332.912109375 253.962890625 c 1
 344.298828125 318 320.298828125 348 304.579101562 357.8046875 c 0
 282.938476562 371.301757812 256.58984375 374.59765625 225.467773438 374.59765625 c 1
 222.548828125 374.59765625 218.862304688 360.974609375 216.444335938 351.36328125 c 0
 209.568359375 308.678710938 192.104492188 239.422851562 179.486328125 166.1328125 c 1
 188.240234375 162.506835938 193.700195312 159.635742188 205.87890625 159.635742188 c 5xd0
98.802734375 394.146484375 m 5xe0
 114.409179688 392.83203125 143.184570312 391.6796875 166.455078125 391.6796875 c 5xd0
 207.108398438 391.6796875 240.4609375 398.015625 280.953125 398.015625 c 1
 375.510742188 398.015625 421.993164062 320.940429688 410.584960938 259.134765625 c 1
 392.8984375 173.084960938 297.637695312 137.21484375 199.61328125 137.21484375 c 1
 186.584960938 137.21484375 186.6015625 137.362304688 176.038085938 139.504882812 c 1
 170.077148438 103.331054688 162.2109375 69.5625 163.286132812 54.72265625 c 0
 162.299804688 24.4990234375 173.372070312 28.83203125 214.00390625 23.328125 c 1
 205.647460938 -6.56640625 l 1
 147.890625 4.1240234375 100.579101562 5.8525390625 32.70703125 -10.5986328125 c 1
 28.255859375 13.7890625 l 1
 75.162109375 33.748046875 82.5458984375 32.7314453125 89.4267578125 60.9404296875 c 0
 108.684570312 135.688476562 127.697265625 246.529296875 138.639648438 337.310546875 c 0
 140.568359375 358.094726562 130.329101562 366.311523438 91.615234375 366.888671875 c 1
 98.802734375 394.146484375 l 5xe0
EndSplineSet
Fore
SplineSet
183.510742186 161 m 1
 208.239257812 161 242.459960938 184.284179688 257.703125001 256 c 1
 270.374023438 315.608398438 267.341796875 363.6484375 242.785156249 374 c 0
 219.380859375 382.413085938 187.452148438 376 154.210937501 376 c 1
 184.597656251 376 225.76171875 356.822265625 223.197265625 343 c 0
 216.254882812 300.9296875 193.905273438 233.421874999 181.724609375 162 c 1
 182.108398438 160.78515625 169.723632812 161 183.510742186 161 c 1
81.737304687 402 m 1
 97.524414064 401 126.3125 400 149.3125 400 c 1
 190.3125 400 223.587890625 406 263.587890625 406 c 1
 358.587890625 406 403.130859375 328.576171875 389.830078125 266 c 1
 370.487304686 175 274.41015625 137 176.41015625 137 c 1
 162.377929688 137 177.387695314 136.333007812 177.985351564 135 c 1
 174.853515626 110.858398438 171.101562499 88.9951171875 173.869140625 78 c 0
 174.875976562 35.69140625 169.021484376 23 189.666992186 30 c 1
 179.801757814 -7 l 1
 152.583984375 -1.8076171875 127.56640625 1.15625 101.54296875 1.15625 c 1
 72.43359375 1.15625 42.0654296875 -2.552734375 5.951171875 -11 c 1
 1.4775390625 15 l 1
 34.2216796875 40.6669921875 37.8369140625 48.7578125 50.6328125 91 c 0
 59.147460938 111.376953125 65.834960937 135.341796875 71.248046875 160.807617188 c 0
 82.415039064 213.349609375 93.141601562 271.026367188 92.733398438 322 c 0
 94.629882812 349.958007812 89.416015626 375.333007812 72.3603515625 372 c 1
 81.737304687 402 l 1
EndSplineSet
EndChar
StartChar: s.pcap
Encoding: 57365 57365 445
Width: 414
Flags: HW
AnchorPoint: "Top" 278.009 465 basechar 0
AnchorPoint: "Bottom" 159.981 -15 basechar 0
LayerCount: 2
Back
SplineSet
47.0283203125 117.834960938 m 1
 72.193359375 122.572265625 l 1
 71.6337890625 103.654296875 75.6572265625 86.2177734375 87.73828125 71.828125 c 0
 109.841796875 45.0244140625 161.28515625 24.732421875 195.618164062 24.732421875 c 1
 242.97265625 24.732421875 273.25390625 59.21875 278.584960938 86.6455078125 c 1
 293.443359375 163.083007812 194.853515625 169.416015625 144.9296875 194.954101562 c 0
 133.46484375 201.140625 87.2978515625 226.787109375 98.6552734375 285.215820312 c 1
 110.216796875 344.6953125 171.439453125 408.959960938 277.354492188 408.959960938 c 1
 304.083984375 408.959960938 331.627929688 403.309570312 340.969726562 401.135742188 c 0
 353.192382812 398.444335938 363.567382812 395.564453125 376.420898438 404.017578125 c 1
 395.325195312 398.26953125 l 1
 374.995117188 346.853515625 376.931640625 344.890625 376.772460938 307.205078125 c 0
 378.524414062 296.756835938 364.201171875 285.365234375 351.33984375 289.541992188 c 1
 348.583984375 285.741210938 346.245117188 315.501953125 349.776367188 325.5703125 c 0
 348.1484375 355.133789062 303.34375 384.12890625 262.68359375 384.12890625 c 1
 232.55859375 384.12890625 181.869140625 374.947265625 169.534179688 311.486328125 c 1
 156.719726562 245.561523438 212.596679688 259.072265625 293.981445312 219.791992188 c 0
 352.71875 192.037109375 355.168945312 139.771484375 348.590820312 105.932617188 c 1
 339.555664062 59.44921875 288.609375 -6.32421875 172.787109375 -6.32421875 c 1
 135.154296875 -6.32421875 104.380859375 -2.095703125 76.4482421875 8.43359375 c 1
 63.501953125 11.1748046875 64.7080078125 9.3876953125 57.9833984375 -2.94921875 c 1
 37.3046875 -0.4033203125 l 1
 43.9384765625 33.744140625 46.978515625 73.4970703125 47.0283203125 117.834960938 c 1
EndSplineSet
Fore
SplineSet
34.251953125 118 m 1
 59.314453125 123 l 1
 58.703125 117.412109375 72.212890625 132.017578125 87.125 108 c 0
 108.998046875 67.0087890625 161.987304688 33 199.183593751 33 c 1
 210.436523438 33 223.643554686 68.0966796875 226.38671875 81 c 1
 245.084960938 168.96875 100.84765625 165.865234375 65.192382812 193 c 0
 92.705078126 186 71.01171875 220.377929688 81.5595703125 270 c 1
 95.6171875 336.13671875 161.370117188 409 270.10546875 409 c 1
 297.10546875 409 323.956054688 403.29296875 333.405273438 401 c 0
 345.767578125 398 350.616210938 402 369.04296875 404 c 1
 387.767578125 398 l 1
 367.224609375 347.727539062 367.92578125 344.572265625 367.086914062 296 c 1
 363.661132812 294 352.0234375 291 341.811523438 290 c 1
 339.518554686 289.666992188 338.262695312 289.13671875 331.385742188 288 c 0
 326.299804688 335.525390625 295.374023438 384 254.791992188 384 c 1
 239.222656251 384 213.790039062 383.9921875 200.826171875 323 c 1
 180.844726562 229 257.924804688 280.401367188 349.358398438 222 c 0
 355.720703125 197.193359375 346.166015625 141.123046875 341.889648438 121 c 1
 330.801757812 68.8388671875 276.154296875 -6 157.89453125 -6 c 1
 119.89453125 -6 89.5322265625 -3 61.8701171875 8 c 1
 49.5078125 11 48.0205078125 4 42.5322265625 -3 c 1
 22.169921875 0 l 1
 29.396484375 34 33.8994140625 74 34.251953125 118 c 1
EndSplineSet
EndChar
StartChar: u.pcap
Encoding: 57367 57367 520
Width: 529
Flags: HW
AnchorPoint: "Horn" 475.255 361.478 basechar 0
AnchorPoint: "Ogonek" 239.866 27 basechar 0
AnchorPoint: "Top" 335.966 465 basechar 0
AnchorPoint: "Bottom" 218.938 -15 basechar 0
LayerCount: 2
Back
SplineSet
83.3623046875 396.44921875 m 1
 123.404296875 392.255859375 208.33203125 392.17578125 262.418945312 396.368164062 c 1
 260.53125 372.728515625 l 1
 221.7109375 369.2734375 203.643554688 366.64453125 191.25390625 317.177734375 c 0
 192.034179688 319.346679688 156.658203125 157.697265625 154.96484375 147.122070312 c 1
 148.8671875 113.947265625 149.69140625 85.484375 163.024414062 65.0419921875 c 0
 177.56640625 43.5400390625 206.7265625 31.9951171875 258.790039062 31.9951171875 c 1
 276.688476562 31.9951171875 325.342773438 30.4541015625 363.48828125 59.77734375 c 0
 389.422851562 80.029296875 400.233398438 104.96875 410.6484375 147.708984375 c 0
 422.5390625 199.099609375 437.477539062 283.375 446.840820312 336.538085938 c 0
 451.862304688 371.174804688 434.600585938 369.930664062 394.520507812 370.505859375 c 1
 400.715820312 396.44921875 l 1
 433.063476562 392.17578125 530.54296875 389.62890625 555.166015625 395.5390625 c 1
 552.126953125 369.768554688 l 1
 519.616210938 370.2421875 503.974609375 372.032226562 494.797851562 340.041015625 c 0
 491.396484375 337.4921875 474.578125 273.92578125 448.634765625 146.71875 c 0
 439.673828125 102.009765625 419.107421875 67.4677734375 390.834960938 42.619140625 c 0
 351.399414062 9.70703125 294.580078125 -6.32421875 225.908203125 -6.32421875 c 1
 160.981445312 -6.32421875 118.520507812 9.1357421875 96.2783203125 36.357421875 c 0
 76.892578125 60.6298828125 72.3310546875 94.3466796875 81.0439453125 136.016601562 c 0
 84.6025390625 147.048828125 119.178710938 318.174804688 119.416992188 324.62890625 c 0
 123.625 364.291015625 121.470703125 363.907226562 75.1982421875 370.505859375 c 1
 83.3623046875 396.44921875 l 1
EndSplineSet
Fore
SplineSet
63.42578125 404 m 1
 83.500976563 402 114.788085938 401 147.788085938 401 c 0
 186.405273438 401 226.991210936 402 258.42578125 404 c 1
 256.537109375 381 l 1
 242.444335936 383 223.7109375 363 202.832031249 293 c 0
 202.242187501 291.431640625 171.193359374 167.670898438 169.349609375 159 c 1
 162.249023438 125.59765625 164.524414062 90.73046875 173.70703125 76 c 0
 185.792968749 56.8125 207.526367188 46 249.330078126 46 c 1
 262.650390626 46 296.873046874 42.3671875 326.732421875 62 c 0
 351.284179688 80.1171875 356.844726564 96.584960938 371.435546876 150 c 0
 383.9375 189.992187501 402.051757814 278.508789062 406.420898438 324 c 0
 414.634765625 380.392578125 406.380859374 381.3828125 380.111328125 379 c 1
 386.42578125 404 l 1
 402.861328125 401.805664062 437.969726562 400.212890625 470.07421875 400.212890625 c 0
 498.368164062 400.212890625 524.467773438 401.291015625 535.42578125 404 c 1
 531.899414062 378 l 1
 505.361328124 381 498.862304688 382.534179688 479.058593751 327 c 0
 476.889648436 321.854492188 447.975585938 265.449218751 422.798828125 147 c 0
 413.233398438 102 391.819335938 67.0205078125 362.692382812 43 c 0
 320.762695314 10 261.283203125 -6 188.27734375 -6 c 1
 123.27734375 -6 80.86328125 8.4951171875 59.205078125 36 c 0
 40.306640625 60 29.2978515625 94.306640625 45.4609375 136 c 0
 49.490234375 145.552734374 82.676757812 295.749023438 82.532226562 301 c 0
 88.09765625 364.826171875 93.076171876 370.130859375 55.111328125 379 c 1
 63.42578125 404 l 1
EndSplineSet
EndChar
StartChar: x.pcap
Encoding: 57370 57370 1217
Width: 475
Flags: HW
AnchorPoint: "Top" 297.541 465 basechar 0
AnchorPoint: "Bottom" 195.514 -15 basechar 0
LayerCount: 2
Back
SplineSet
72.3349609375 399.728515625 m 5xa0
 139.205078125 396.272460938 186.453125 395.12109375 248.9765625 403.921875 c 1
 245.3125 381.2734375 l 1
 240.859375 379.879882812 230.387695312 380.2734375 221.307617188 377.91015625 c 0
 210.400390625 374.78125 211.462890625 361.90234375 214.899414062 352.315429688 c 1
 213.689453125 351.951171875 270.203125 237.88671875 268.663085938 239.36328125 c 1
 299.999023438 274.071289062 322.977539062 305.303710938 336.434570312 321.331054688 c 0
 346.115234375 332.783203125 357.467773438 356.919921875 341.71484375 367.286132812 c 1
 338.412109375 371.029296875 315.896484375 377.981445312 312.512695312 377.817382812 c 1
 319.734375 398.081054688 l 1
 367.063476562 392.655273438 434.979492188 393.887695312 484.91796875 399.809570312 c 1
 481.923828125 376.827148438 l 1
 473.672851562 374.716796875 443.69140625 372.055664062 412.43359375 347.7734375 c 0
 396.202148438 336.51953125 390.67578125 333.405273438 280.928710938 224.336914062 c 1
 303.657226562 190.495117188 378.715820312 69.8251953125 389.076171875 59.466796875 c 1
 412.033203125 29.1220703125 422.607421875 30.5703125 445.794921875 23.904296875 c 1
 436.39453125 -0.806640625 l 5x60
 397.797851562 7.580078125 294.970703125 5.1953125 251.213867188 -4.423828125 c 1
 253.518554688 17.568359375 l 1
 259.274414062 22.1552734375 272.635742188 25.2607421875 279.068359375 29.4609375 c 0
 297.381835938 40.6552734375 290.239257812 60.208984375 283.280273438 75.1669921875 c 0
 270.631835938 106.938476562 258.54296875 132.639648438 234.137695312 173.013671875 c 1
 190.348632812 127.935546875 166.9453125 97.8212890625 143.356445312 67.7861328125 c 0
 133.71484375 55.7861328125 122.264648438 36.8369140625 140.159179688 25.4453125 c 0
 148.454101562 20.8291015625 158.422851562 18.380859375 163.680664062 17.4755859375 c 1
 159.421875 -3.60546875 l 1
 107.06640625 0.091796875 50.1875 1.8203125 -0.0400390625 -4.7578125 c 1
 2.923828125 16.8310546875 l 1
 14.169921875 18.08984375 47.0654296875 29.572265625 77.78125 55.0322265625 c 0
 87.5537109375 65.103515625 90.7197265625 60.619140625 219.7421875 190.147460938 c 1
 134.853515625 329.364257812 133.345703125 335.135742188 124.274414062 341.392578125 c 0
 96.9765625 371.967773438 83.8486328125 379.803710938 68.3154296875 382.010742188 c 1
 72.3349609375 399.728515625 l 5xa0
EndSplineSet
Fore
SplineSet
49.7880859375 403 m 1
 80.557617187 401.629882812 106.990234375 400.467773438 132.623046875 400.467773438 c 0
 172.322265625 400.467773438 210.444335936 402.111328125 254.638671875 407 c 1
 250.749023438 384 l 1
 250.543945312 384.666992188 250.844726562 389.793945312 249.173828125 386 c 0
 238.353515624 380.077148438 235.529296875 363.165039062 238.883789064 347 c 1
 210.600585936 388 257.440429688 255.646484375 258.1171875 254 c 1
 266.261718749 268.792968751 264.841796876 284.497070312 265.981445312 291 c 0
 278.452148438 306.614257812 305.314453124 349.015625 278.560546874 369 c 1
 291.619140625 372.920898438 277.705078126 390 276.749023438 384 c 1
 284.000976562 404 l 1
 308.418945314 401.838867188 337.557617188 400.798828125 367.622070312 400.798828125 c 0
 400.5546875 400.798828125 434.880859375 402.59375 463.42578125 406 c 1
 460.537109375 383 l 1
 464.38671875 387 435.198242186 372 382.759765625 337 c 0
 370.909179686 337.608398438 378.15625 348.2734375 269.778320314 243 c 1
 289.90625 210.030273438 387.857421874 36.36328125 366.770507812 83 c 1
 404.606445314 35.181640625 412.50390625 30 416.442382814 25 c 1
 408.915039062 -1 l 1
 391.893554688 2.5556640625 362.24609375 4.3330078125 330.685546875 4.3330078125 c 0
 277.661132812 4.3330078125 220.820312501 1.5556640625 188.27734375 -4 c 1
 187.954101562 18 l 1
 187.703124999 20.9091796875 178.87890625 23.0908203125 186.716796876 31 c 0
 211.416992186 52.8916015625 200.110351562 88.947265625 193.871093751 107 c 0
 197.249023436 128.692382813 198.868164062 141.958984375 193.350585938 161 c 1
 168.201171875 134.428710938 165.049804688 116.334960938 159.169921876 99 c 0
 143.795898438 78.8232421875 125.790039062 48.7060546875 151.866210938 27 c 0
 151.701171875 17.75 152.945312499 13.25 154.741210938 17 c 1
 150.27734375 -4 l 1
 116.164062501 -1.91015625 80.5712890625 -0.3662109375 45.4228515625 -0.3662109375 c 0
 19.6787109375 -0.3662109375 -5.822265625 -1.6572265625 -29.935546875 -5 c 1
 -26.2587890625 17 l 1
 -36.1708984375 8 14.7802734375 43.3583984375 62.919921875 79 c 0
 69.6044921875 81.65234375 16.954101562 15.22265625 177.538085938 176 c 1
 104.348632812 312.71484375 101.757812501 313.423828125 94.720703124 318 c 0
 46.27734375 369.638671875 58.23828125 391 45.9619140625 385 c 1
 49.7880859375 403 l 1
EndSplineSet
EndChar
StartChar: z.pcap
Encoding: 57372 57372 1224
Width: 488
Flags: HW
AnchorPoint: "Top" 311.367 465 basechar 0
AnchorPoint: "Bottom" 193.34 -15 basechar 0
LayerCount: 2
Back
SplineSet
67.486328125 309.8515625 m 5x70
 126.180664062 398.927734375 109.6171875 412.493164062 135.721679688 418.47265625 c 1
 141.813476562 398.247070312 167.868164062 399.204101562 184.560546875 397.65234375 c 0
 199.668945312 393.232421875 396.07421875 392.286132812 456.490234375 394.192382812 c 0
 463.875976562 394.381835938 475.170898438 395.430664062 479.405273438 396.5 c 1
 484.625 381.5703125 l 1
 483.978515625 381.272460938 463.514648438 360.615234375 462.977539062 360.469726562 c 0
 467.719726562 361.551757812 130.623046875 28.458984375 137.268554688 29.8642578125 c 5x70
 146.458007812 30.150390625 145.819335938 27.611328125 179.814453125 27.341796875 c 0
 309.338867188 29.880859375 405.90625 66.3955078125 422.143554688 102.073242188 c 1
 439.022460938 92.71875 l 1
 404.762695312 37.4521484375 389.830078125 10.83203125 367.862304688 -16.6806640625 c 5xb0
 354.1640625 -9.720703125 349.362304688 -3.9580078125 300.359375 -3.5302734375 c 0
 213.654296875 0.529296875 66.3583984375 4.4638671875 16.0234375 -0.0693359375 c 1
 12.8544921875 17.8212890625 l 1
 38.3359375 29.9169921875 61.5986328125 50.28515625 80.4267578125 68.267578125 c 1
 177.151367188 163.868164062 275.4453125 263.5546875 364.159179688 361.165039062 c 1
 364.126953125 361.193359375 366.831054688 363.46875 366.831054688 363.46875 c 1
 385.598632812 366.733398438 212.495117188 368.276367188 221.83984375 368.673828125 c 1
 165.630859375 364.540039062 128.637695312 350.172851562 85.2958984375 299.655273438 c 1
 67.486328125 309.8515625 l 5x70
EndSplineSet
Fore
SplineSet
53.2041015625 310 m 1
 114.171875 403.944335938 98.088867186 417.666992188 124.435546875 424 c 1
 129.971679686 403 156.040039064 403.801757812 172.971679686 403 c 0
 188.8125 402.25 385.315429686 400 445.333984375 400 c 0
 452.333984375 400 463.545898436 401 467.758789064 402 c 1
 472.783203125 388 l 1
 471.74609375 387 454.726562499 366.828125 454.106445314 366 c 0
 451.941406251 362.991210938 183.603515626 50.044921875 183.75 35 c 1
 143.627929688 31 37.935546875 26.9990234375 -7.612304688 38 c 0
 224.211914062 46.271484375 431.267578125 108 403.9921875 102 c 1
 421.079101564 93 l 1
 385.388671875 38 370.649414064 11 347.697265625 -17 c 1
 334.185546875 -10 328.930664064 -6.2509765625 280.4609375 -4 c 0
 194.311523436 0 46.3740234375 5 -3.6884765625 0 c 1
 -6.86328125 18 l 1
 21.095703125 31.919921875 49.0322265625 59.70703125 63.46484375 76 c 1
 122.015625 153.865234374 222.842773438 269.002929686 286.106445312 366 c 1
 287.46875 363 l 1
 289.169921876 371 278.805664062 371.391601562 288.107421874 366 c 1
 217.124023436 360.680664062 110.368164062 339 71.078125 300 c 1
 53.2041015625 310 l 1
EndSplineSet
EndChar
StartChar: eogonek.pcap
Encoding: 57415 57415 233
Width: 468
UnlinkRmOvrlpSave: 1
Flags: HMW
AnchorPoint: "Top" 243 465 basechar 0
LayerCount: 2
Fore
SplineSet
63 404 m 1
 103.716796875 402.131835938 156.293945312 401.380859375 207.076171875 401.380859375 c 0
 292.23828125 401.380859375 372.350585938 403.494140625 383 406 c 1
 390.208007812 399.821289062 392.821289062 394.350585938 392.821289062 386.875976562 c 0
 392.821289062 372.575195312 383.25390625 350.943359375 378 303 c 1
 358 301 l 1
 353 312 362.796762138 343.134499322 339 359 c 0
 323.391601562 369.40625 289.594726562 375.159179688 255.490234375 375.159179688 c 0
 237.15625 375.159179688 219.018572426 371.779841381 203 370 c 0
 194 369 187.839150452 358.955867427 187 351 c 0
 182 303.595703125 178 259.282226562 177 216 c 1
 213 216 280.876988301 217.646164717 295 220 c 0
 325 225 330 238 341 267 c 1
 362 263 l 1
 357.431640625 246.552734375 355.576171875 226.348632812 355.576171875 205.8203125 c 0
 355.576171875 181.415039062 358.198242188 156.552734375 362 137 c 1
 339 131 l 1
 327 188 326.387737143 177.280224615 294 186 c 0
 268 193 229 192 177 192 c 1
 177 135.8046875 179.380184675 89.4792612987 189 51 c 0
 191 43 195.987717642 37.9439050144 205 36 c 0
 228.905273438 30.84375 248.196289062 26.56640625 266.889648438 26.56640625 c 0
 288.078125 26.56640625 308.682875361 31.7710739491 334 48 c 0
 373 73 376 85 397 120 c 1
 416 115 l 1
 405.659907891 49.6008314195 379.047693558 11.9997489385 359.272460938 -2.767578125 c 1
 290.890875387 -58.6961464566 279.771484375 -91.0758090067 279.771484375 -148 c 0
 279.771484375 -184.331711894 301.134509604 -205.872070312 328.166015625 -205.872070312 c 0
 343.840568725 -205.872070312 362.660571522 -195.18359375 381.97265625 -171.599609375 c 1
 381.97265625 -171.599609375 393.081054688 -181.926757812 395.771484375 -190 c 1
 372.083847314 -242.788085938 332.174993147 -266 295.771484375 -266 c 0
 250.572780919 -266 210.561523438 -232.643480507 210.561523438 -176.834960938 c 0
 210.561523438 -137.227421412 238.549177954 -67.3284068416 314.21484375 -1.8740234375 c 1
 274.004362255 -1.06248579986 233.619958881 -0.384765625 194.928710938 -0.384765625 c 0
 147.72265625 -0.384765625 103.91796875 -1.7412109375 69 -6 c 1
 63 17 l 1
 92 24 100.459652982 27.0888971875 105 53 c 0
 108.661132812 73.8935546875 110.133789062 141.57421875 110.133789062 207.544921875 c 0
 110.133789062 267.721679688 108.468610331 326.43945537 107 347 c 0
 105 375 99 376 60 385 c 1
 63 404 l 1
EndSplineSet
EndChar
StartChar: oe.pcap
Encoding: 57443 57443 362
Width: 733
UnlinkRmOvrlpSave: 1
Flags: HW
AnchorPoint: "Top" 437.689 465 basechar 0
AnchorPoint: "Bottom" 339.663 -15 basechar 0
LayerCount: 2
Fore
SplineSet
291.197265625 378 m 3
 219.197265625 378 155.931640625 325 138.501953125 243 c 0
 115.54296875 134.985351562 171.227539062 30 266.227539062 30 c 3
 285.077148438 30 311.544921875 33.9365234375 318.991210938 43 c 0
 329.283203125 55.5263671875 357.474609375 157.439453125 369.362304688 213.365234375 c 0
 377.797851562 253.048828125 386.455078125 318 381.20703125 331 c 0
 369.096679688 361 327.086914062 378 291.197265625 378 c 3
238.36328125 -7 m 3
 95.36328125 -7 31.8310546875 108.112304688 51.3623046875 200 c 0
 75.59375 314 205.63671875 413 332.63671875 413 c 3
 387.891601562 413 390.037109375 401.380859375 510.243164062 401.380859375 c 3
 595.405273438 401.380859375 675.966796875 403.494140625 687.149414062 406 c 1
 693.043945312 399.821289062 694.494140625 394.350585938 692.905273438 386.875976562 c 0
 689.865234375 372.575195312 675.700195312 350.943359375 660.255859375 303 c 1
 639.830078125 301 l 1
 637.168945312 312 653.583984375 343.134765625 633.159179688 359 c 0
 619.940943385 369.266785986 587.96133818 372.983035938 554.349669365 372.983035938 c 0
 535.580125425 372.983035938 516.30164408 371.824172647 499.497070312 370 c 0
 490.284179688 369 481.98828125 358.956054688 479.458007812 351 c 0
 464.381835938 303.595703125 450.962890625 259.282226562 440.763671875 216 c 1
 476.763671875 216 544.990234375 217.646484375 559.61328125 220 c 0
 590.67578125 225 598.439453125 238 615.603515625 267 c 1
 635.752929688 263 l 1
 627.689453125 246.552734375 621.5390625 226.348632812 617.17578125 205.8203125 c 0
 611.98828125 181.415039062 609.325195312 156.552734375 608.971679688 137 c 1
 584.696289062 131 l 1
 584.811523438 188 581.920898438 177.280273438 551.38671875 186 c 0
 526.874023438 193 487.662109375 192 435.662109375 192 c 1
 423.716796875 135.8046875 416.250976562 89.4794921875 417.69140625 51 c 0
 417.991210938 43 421.904296875 37.9443359375 430.502929688 36 c 0
 453.3125 30.84375 471.694335938 26.56640625 490.387695312 26.56640625 c 3
 511.576171875 26.56640625 533.287109375 31.771484375 562.053710938 48 c 0
 606.3671875 73 611.91796875 85 640.357421875 120 c 1
 658.294921875 115 l 1
 640.79296875 75 616.831054688 18.7236328125 608.000976562 -4 c 1
 545.01171875 -2.8369140625 476.459960938 -0.384765625 412.698242188 -0.384765625 c 3
 342.622070312 -0.384765625 297.4296875 -7 238.36328125 -7 c 3
EndSplineSet
EndChar
StartChar: ohorn.pcap
Encoding: 57467 57467 365
Width: 574
UnlinkRmOvrlpSave: 1
Flags: HW
AnchorPoint: "Top" 283 465 basechar 0
AnchorPoint: "Bottom" 288 -15 basechar 0
LayerCount: 2
Fore
SplineSet
502 442 m 3
 502 450 498 459 488 471 c 1
 504 490 524 500 542 500 c 3
 572 500 588 475 588 446 c 3
 588 396 510 365 448 365 c 3
 431.693359375 365 419.80078125 368.375976562 411 374.995117188 c 0
 402.530273438 381.365234375 396.922851562 390.739257812 393 403 c 1
 408 397 432 390 446 390 c 3
 471 390 502 409 502 442 c 3
EndSplineSet
Refer: 359 57361 N 1 0 0 1 0 0 2
EndChar
StartChar: uni0195.pcap
Encoding: 57498 57498 544
Width: 847
Flags: HW
LayerCount: 2
Fore
SplineSet
478 147 m 0
 478 71.6250537394 510.93218521 32 592 32 c 0
 667.513306734 32 708.103837686 54.232510243 712 148 c 0
 714.242075426 201.959195638 712 291.91556948 711 348 c 0
 709 383 692 381 652 382 c 1
 653 407 l 1
 686 403 785 401 808 407 c 1
 810 381 l 1
 777 381 762 383 759 351 c 0
 756 347.829349347 751 281.238747668 750 147 c 0
 750 40.733348295 675.425048804 -6 567 -6 c 0
 468.04476062 -6 408.764071853 42.0910178428 411 136 c 0
 411.2890625 148.14007767 410 134.8046875 411 189 c 1
 181 189 l 1
 180 142.701955976 180 95.4178261861 183 57 c 0
 184 25 213 26 231 20 c 1
 231 20 228 3 228 -4 c 1
 199.128420419 1.2493781056 168.052363199 4.0187188666 138.388121044 4.0187188666 c 0
 111.542350854 4.0187188666 85.8528607142 1.7506218944 64 -3 c 1
 64 -3 61 15 60 24 c 1
 79 29 102 29 105 58 c 0
 111.02325267 117.226442081 114.144139522 206.666661814 114.144139522 272.383061663 c 0
 114.144139522 315.77116638 112.783723131 348.817892197 110 356 c 0
 105 380 85 381 63 384 c 1
 65 409 l 1
 100.970073031 405.899131635 132.709376831 402.798263271 166.658176466 402.798263271 c 0
 187.450171411 402.798263271 209.070941396 403.961389384 233 407 c 1
 235 383 l 1
 222 380 193 379 190 366 c 1
 185 345.588867188 185 275.170898438 183 217 c 1
 411 218 l 1
 411 252.8359375 411 292.794921875 409 343 c 0
 407 378 384 376 361 385 c 1
 364 408 l 1
 386.901994577 403.419601085 410.013789697 400.937207592 433.527579394 400.937207592 c 0
 461.349470565 400.937207592 489.734154144 404.412558482 519 412 c 1
 523 388 l 1
 497 381 489 378 486 352 c 0
 476 262.22265625 478 158.517578125 478 147 c 0
EndSplineSet
EndChar
StartChar: pi.pcap
Encoding: 57533 57533 413
Width: 592
Flags: HW
AnchorPoint: "Bottom" 302 -15 basechar 0
AnchorPoint: "Top" 306 465 basechar 0
LayerCount: 2
Fore
SplineSet
183 52 m 0
 184 20 213 21 231 15 c 1
 231 15 228 -2 228 -9 c 1
 199.128420419 -3.7506218944 168.052363199 -0.981281133395 138.388121044 -0.981281133395 c 0
 111.542350854 -0.981281133395 85.8528607142 -3.2493781056 64 -8 c 1
 64 -8 61 10 60 19 c 1
 79 24 102.098632812 23.990234375 105 53 c 0
 110.747062006 110.458834098 112.863544994 195.596317568 112.863544994 261.272308749 c 0
 112.863544994 309.873823373 111.704497805 347.817662948 110 356 c 0
 105 380 85 381 63 384 c 1
 65 409 l 1
 100.969726562 405.8984375 132.708984375 402.797851562 166.658203125 402.797851562 c 3
 186.653320312 402.797851562 419.915039062 402.9375 442.52734375 402.9375 c 3
 470.349609375 402.9375 498.734375 405.784179688 528 412 c 1
 532 388 l 1
 506 381 497.897460938 378.01171875 495 352 c 0
 489.228005274 300.180564533 486.333087775 217.398143015 486.333087775 150.793865186 c 0
 486.333087775 102.006010856 487.886387913 61.8987192137 491 49 c 0
 498 20 515 18 531 15 c 1
 531 15 528 -1 528 -8 c 1
 507.501425325 -3.60744828396 482.238773964 -1.1205272423 456.048562342 -1.1205272423 c 0
 428.577048425 -1.1205272423 400.084996213 -3.85673562139 375 -10 c 1
 375 -8 370 6 369 14 c 1
 394 22 410.564453125 23.8271484375 413 53 c 0
 418.106269207 114.16478082 421.333309401 168.072619552 421.333309401 226.765406513 c 0
 421.333309401 259.925677442 420.303229173 294.613317188 418 333 c 0
 416 366.333007812 394.544921875 373 370 373 c 0
 235 373 l 3
 221.658203125 373 193.5234375 368.868164062 190 356 c 0
 182.393809932 328.225171792 180.232503493 265.283411687 180.232503493 201.039568698 c 0
 180.232503493 144.775767161 181.890224604 87.5132686094 183 52 c 0
EndSplineSet
EndChar
StartChar: psi.pcap
Encoding: 57537 57537 420
Width: 518
Flags: HW
LayerCount: 2
Fore
SplineSet
190.454101562 409 m 1
 214.740110334 402.856445312 238.272537859 400.120117188 262.208007812 400.120117188 c 0
 285.895891351 400.120117188 309.964480173 402.607421875 335.454101562 407 c 1
 336.36328125 379 l 1
 316.854453125 378 302.653310169 384.24065173 299.36328125 349 c 0
 295.606827471 308.763308278 292.118359259 259.648410435 291.812716103 193.522816886 c 1
 377.119930411 232.39958595 342.54485664 411.395507813 435.0859375 411.395507812 c 0
 466.574817003 411.395507812 479.340723522 393.46089814 487 373.28515625 c 1
 389.854701491 319.558416959 407.72427367 192.000041 291.788026507 168.674198519 c 1
 291.806746512 137.780839017 292.150328611 103.372664324 296 65 c 0
 298.909375 36 328 21 360 20 c 1
 359.090820312 -6 l 1
 331.588728636 -2.6171875 296.774819513 -0.869140625 262.57421875 -0.869140625 c 0
 226.034569077 -0.869140625 190.193395166 -2.8662109375 164.727539062 -7 c 1
 162 19 l 1
 194.880191473 20 225.372333411 31.9534315877 228.727539062 69 c 0
 231.30328811 97.4401831617 232.852276838 132.594660137 233.415681803 169.021720266 c 1
 118.604136416 193.753844707 136.074970956 319.825405254 39 372.694335938 c 1
 46.9543516897 392.868227181 60.2120673987 410.8046875 92.9140625 410.8046875 c 0
 184.877923738 410.8046875 151.202816803 235.553078543 233.650022411 194.804539113 c 1
 233.810114979 251.810214073 235.914739815 312.476209872 229.909179688 348 c 0
 224.668399825 379 206.979800141 377 188.63671875 381 c 1
 190.454101562 409 l 1
EndSplineSet
EndChar
StartChar: c.smcp
Encoding: 57673 57673 1373
Width: 546
VWidth: 1047
Flags: HW
LayerCount: 2
Fore
SplineSet
54.6872070312 244.4 m 0
 81.3735351561 369.4453125 198.145800781 499.5 393.270898438 499.5 c 3
 427.703417969 499.5 452.801464844 498 487.396679687 486.9 c 0
 516.79296875 478 529.489550781 483.3 543.050292969 484.8 c 1
 561.423632813 472.9 l 1
 522.336425781 431.1 509.307617188 406.4 504.453808594 386.5 c 0
 499.583496094 367.2 496.3796875 366.1 473.7796875 366.1 c 1
 472.969335938 388.4 482.996191406 418.4 463.663183593 435.2 c 0
 435.224707032 457.4 412.630859375 468.6 371.867480469 468.6 c 3
 270.59609375 468.6 174.5375 392.763574218 146.221386718 259.9 c 0
 116.003027343 115.2 196.144335937 25.7 289.334082031 25.7 c 3
 352.002929688 25.7 412.367089844 65.7 453.804101563 130.2 c 1
 475.174316406 123.6 l 1
 461.290136719 86.8 452.944238281 70.5 437.31171875 33 c 1
 389.779492187 11.1 328.254882812 -7.2 265.849121094 -7.2 c 3
 129.7234375 -7.2 22.7826171875 93.1 54.6872070312 244.4 c 0
EndSplineSet
EndChar
StartChar: v.smcp
Encoding: 57692 57692 1392
Width: 539
VWidth: 1047
Flags: HW
LayerCount: 2
Fore
SplineSet
257.573535156 490.4 m 1
 251.680859375 464.9 l 1
 234.845605469 465.2 219.374316406 463.32734375 211.091699219 461.5 c 0
 190.186523438 456.9 193.900585937 448.531152344 195.049023438 440.2 c 1
 195.831738281 437.29609375 243.012792969 99.3590820312 247.769921875 92.1 c 1
 250.796191406 96.4572265625 472.9046875 428.564160157 476.394433594 435.1 c 1
 482.856054687 443.996289063 483.180761719 457.1 467.550292969 459.9 c 0
 463.224609375 460.6 435.053027344 465.4 432.958203125 465.4 c 1
 440.434765625 493.5 l 1
 465.226171875 488.316210938 496.711621094 485.986523438 526.75234375 485.986523438 c 0
 559.255957031 485.986523438 590.075 488.718945313 608.9 493.5 c 1
 605.595019531 464.1 l 1
 573.890722656 461.7 551.358886719 450.762597656 510.798730469 407.1 c 0
 489.492089843 383.31328125 319.252441407 152.560546875 247.308789063 42.5 c 0
 233.786523437 23.993359375 219.797167968 -2.8 212.884277344 -23.5 c 1
 178.350488281 -23.5 l 1
 180.833300781 -2.8 177.507714844 12.6046875 174.080566407 40.2 c 0
 164.501464844 114.454882813 139.735351563 272.338183593 112.953613281 418.9 c 0
 103.613378906 456.757128906 90.3323242189 460.7 57.3526367187 465.6 c 1
 67.5938476563 491.7 l 1
 99.858984375 487.022167969 124.474804688 485.432910156 148.415136719 485.432910156 c 0
 180.410351563 485.432910156 211.163574219 488.336914062 257.573535156 490.4 c 1
EndSplineSet
EndChar
StartChar: z.smcp
Encoding: 57696 57696 1396
Width: 546
VWidth: 1047
Flags: HW
LayerCount: 2
Fore
SplineSet
73.5388671876 388 m 1
 136.088671875 486.461035157 124.345703125 507.166894532 150.757421875 514.6 c 1
 158.286621093 491.8 186.557226563 489.735058593 201.417578125 488.8 c 0
 221.304589844 486.860253906 459.591308593 483.870800781 530.878613281 485.38515625 c 0
 538.672265625 485.500585937 548.716992187 486.33828125 553.0078125 487.2 c 1
 558.6 471.1 l 1
 557.750976562 470.4 540.059179687 452.381835938 539.546484375 451.799414062 c 0
 537.692578125 449.661132812 135.339941407 44.8907226562 128.866992187 34.2 c 1
 156.169628907 32.8 178.235253906 30.9469726563 223.446679687 31.5 c 0
 357.693066406 33.6 453.612695313 71.1 476.900195312 118.5 c 1
 495.63125 108.3 l 1
 454.739746094 42.5 438.593945313 12.8 413.464453125 -19.1 c 1
 399.062109375 -10.9 391.014355469 -4.40556640625 333.971484375 -2.5 c 0
 231.640820312 0.9 60.1796875 6.8 2.72763671875 1.2 c 1
 -0.4744140625 22.5 l 1
 29.7360351563 37.2 58.1888671875 61.4752929687 80.3386718751 83.3 c 1
 199.582128906 203.043945312 320.521777344 326.491308593 433.515722656 448.6 c 1
 436.347753906 451.5 l 1
 425.743164063 454.3 237.665820312 455.6 233.465820312 455.6 c 1
 185.663769531 455.646289062 139.874902344 436.65 92.5865234375 375.6 c 1
 73.5388671876 388 l 1
EndSplineSet
EndChar
StartChar: uni019E.smcp
Encoding: 57994 57994 551
Width: 561
Flags: HW
LayerCount: 2
Fore
SplineSet
560.9 -213.7 m 1
 560.9 -213.7 555.9 -243.5 556.2 -247.7 c 1
 518.402423334 -239.182202113 492.913372449 -236.511695442 452.217370372 -236.511695442 c 1
 419.593335578 -236.511695442 377.33247864 -241.357063849 346.2 -248.6 c 1
 346.2 -248.6 341.6 -218.6 341 -215 c 1
 388.577483741 -205.701767871 411.379915075 -207.46507164 414.339941406 -154.125 c 0
 417.184863281 -99.8015362637 421.420117188 22.5391965951 421.420117188 73.5 c 3
 421.420117188 166.20078125 419.383849501 305.113357814 416.120117188 343.175 c 0
 411.437109375 397.015397621 388.467773438 435.55 324.739941406 435.55 c 3
 266.226757813 435.55 215.027832031 418.53 174.8 393 c 1
 173.506640625 282.302450059 168.979882812 128.116890823 168.979882812 80.675 c 3
 168.979882812 28.8279968095 202.899003001 33.0095039968 245.5 26.7 c 1
 245.5 26.7 241.5 -4 241.2 -8.2 c 1
 198.417718159 -1.41961969309 163.929477178 3.53369404002 121.683681685 3.53369404002 c 1
 89.6338451269 3.53369404002 53.8593722346 -1.04165407609 21.9 -6.2 c 1
 21.9 -6.2 18.3 24.1 17.7 29.5 c 1
 61.1078215258 37.1317754337 85.9867640643 42.0762330443 92.4600585936 86.8 c 0
 97.7573242186 126.359667969 98.3 202.935839844 98.3 243.775 c 3
 98.3 268.275 95.5010650992 352.768331466 89.7798828125 377.3 c 0
 82.1266601562 411.86875 72.4913085938 414.3 57.1201171875 414.3 c 3
 46.6018554688 414.3 37.7 410.9 26.0600585938 410.375 c 1
 22.2 441.4 l 1
 61.9213867188 449.248144531 102.242773438 456.649804688 155.320117187 499.7 c 1
 158.482394583 498.925922054 174.891041457 486.691728569 175.893871484 484.100000656 c 1
 174.589461578 468.665123607 172.760058594 442.364924924 172.760058594 419.95 c 1
 228.339746094 455.903222656 288.551367187 499.975 361.5 499.975 c 3
 442.629003906 499.975 492.639941406 450.975 492.639941406 364 c 3
 492.639941406 288.099882812 490.279882812 205.299941406 490.279882812 122.5 c 3
 490.279882812 -11.6377361919 488.603180076 -141.225950176 493.820117187 -181.075 c 0
 498.026469907 -213.280360239 530.058504797 -209.177306428 560.9 -213.7 c 1
EndSplineSet
EndChar
StartChar: Grave
Encoding: 58019 58019 1277
Width: 222
Flags: HW
AnchorPoint: "Top" 199.872 699 mark 0
LayerCount: 2
Fore
SplineSet
278.82421875 793.728515624 m 1
 250.134765625 744.31640625 l 1
 169.035802649 768.44053501 83.4543093186 781.461398784 12.376953125 777.8671875 c 1
 37.8065193124 827.924395415 86.6158171958 887.426390763 89.658203125 891.467773438 c 1
 146.814154889 871.935658406 231.237353734 826.955689679 278.82421875 793.728515624 c 1
EndSplineSet
EndChar
StartChar: Tilde
Encoding: 58022 58022 1327
Width: 329
VWidth: 1159
Flags: HW
AnchorPoint: "Top" 313.577 699 mark 0
LayerCount: 2
Fore
SplineSet
176.313476562 755.353515625 m 1
 218.80240193 814.629645531 277.627160555 859.673828124 281.21484375 859.673828124 c 3
 329.948288193 859.673828124 366.043242076 840.10546875 423.470703124 840.10546875 c 3
 433.096993786 840.10546875 455.1953125 852.55078125 459.8125 871.6484375 c 1
 501.3515625 854.5390625 l 1
 468.104921556 798.756671504 404.640625 744.10546875 402.65234375 744.10546875 c 3
 354.000665974 744.10546875 299.71484375 765.78125 246.408203124 765.78125 c 3
 229.332728888 765.78125 225.874664802 748.859576524 216.609375 738.2890625 c 1
 176.313476562 755.353515625 l 1
EndSplineSet
EndChar
StartChar: Uni030F
Encoding: 58034 58034 1332
Width: 300
Flags: HW
AnchorPoint: "Top" 225 699 mark 0
LayerCount: 2
Fore
SplineSet
333.368164062 753 m 1
 303.063476562 736 l 1
 270.240234375 806.810546875 257.427734375 828.053710938 220.52734375 867 c 1
 243.911132812 879.947265625 280.165039062 896 280.165039062 896 c 1
 307.0546875 849.75390625 320.0546875 801.966796875 333.368164062 753 c 1
172.145507812 757 m 1
 141.2578125 737 l 1
 102.564453125 808.2109375 88.62890625 828.657226562 52.5556640625 862 c 1
 74.1279296875 874.747070312 109.387695312 892 109.387695312 892 c 1
 139.204101562 851.99609375 156.638671875 803.525390625 172.145507812 757 c 1
EndSplineSet
EndChar
StartChar: Cyrillicdescender
Encoding: 58088 58088 1259
Width: 202
VWidth: 0
Flags: HW
LayerCount: 2
Fore
SplineSet
11.439453125 37 m 1
 194.439453125 37 l 1
 135.560546875 -240 l 1
 96.560546875 -240 l 1
 112.096679688 -54 97.57421875 0 3.57421875 0 c 1
 11.439453125 37 l 1
EndSplineSet
EndChar
StartChar: R.alt
Encoding: 58117 58117 1316
Width: 731
Flags: HW
AnchorPoint: "Top" 383.073 699 basechar 0
AnchorPoint: "Bottom" 304.822 -15 basechar 0
LayerCount: 2
Fore
SplineSet
292.793945312 387 m 1
 312.883927079 387.5 323.749106507 388 343.830078125 388 c 3
 474.463950306 388 500 480 503.197265624 496 c 0
 513.988496705 550.002299967 484.998328975 647 388.47265625 647 c 3
 379.896473201 647 364.888106426 637.961353823 343.36328125 583 c 0
 319.220703125 521.354492188 305.892502209 448.553719008 292.793945312 387 c 1
163.04296875 686 m 1
 204.051757812 685 225.051757812 685 266.051757812 685 c 0
 335.671894556 685 368.68916073 705 446.877929688 705 c 0
 580.71396679 705 672.280849692 622.318168094 644.494140625 520 c 0
 622.247645448 439.353932584 529.5703125 377.197916667 480.09375 355 c 1
 543.653187232 135.551928783 598.311697332 21 683 17 c 1
 655.313476562 -32 l 1
 499.548532636 -36.985915493 357.653202752 152.478873239 335.212890625 322 c 1
 332.08775453 322 329.654717109 322 327.221679688 322 c 0
 308.412999404 322 298.500643149 323.2 280.178710938 324 c 1
 271 276 254 163 249.301757812 104 c 0
 245.941342592 61.800281453 252 54 295.711914062 50 c 1
 274.094726562 -7 l 1
 232 2.03125 172.355306851 6.546875 127.330774307 6.546875 c 0
 88.2618215906 6.546875 48.1362120978 3.03125 7.068359375 -4 c 1
 14.7119140625 55 l 1
 52 58 67.0846513145 63 80.396484375 91 c 1
 115.840773 203.199508088 140.551270508 279.010616897 154.630541448 354 c 0
 166.702860941 418.299905533 195 545 194.803710938 567 c 1
 194.71484375 607.6796875 181.785011234 633.24 146.3671875 636 c 1
 163.04296875 686 l 1
EndSplineSet
Position2: "cpsp-1" dx=0 dy=0 dh=50 dv=111
EndChar
StartChar: zero.smaller
Encoding: 58358 58358 1235
Width: 344
Flags: HW
LayerCount: 2
Back
SplineSet
151.501953124 244.6796875 m 3
 133.667941647 244.6796875 145.490563526 212.246830491 140 182.31640625 c 0
 119.216127775 81.2039794794 134.260344647 28.6875 186.703125 28.6875 c 3
 227.484176139 28.6875 196.119140624 94.015625 195.662109376 100.55078125 c 0
 212.768793853 187.387728559 222.121101376 244.6796875 151.501953124 244.6796875 c 3
EndSplineSet
Fore
SplineSet
162 244 m 3
 145.283935547 244 135.528616589 214.236031406 133 182.31640625 c 0
 125.415922015 79.3182613236 159.377434664 28.6875 187.703125 28.6875 c 3
 209.830267526 28.6875 215.845745606 91.4641218662 216 112 c 0
 216.613148835 200.020984738 195.266882945 244 162 244 c 3
205.504882812 275.151367188 m 3
 280.978515625 275.151367188 330.456299359 213.850326377 313.797851562 135.481445312 c 0
 295.8359375 50.98046875 214.979492188 -0.1904296875 140.163085938 -0.1904296875 c 3
 62.9345703125 -0.1904296875 9.48034963267 56.172669296 26.259765625 135.115234375 c 0
 43.65625 216.9609375 130.723632812 275.151367188 205.504882812 275.151367188 c 3
EndSplineSet
EndChar
StartChar: eight.smaller
Encoding: 58366 58366 222
Width: 292
UnlinkRmOvrlpSave: 1
Flags: HW
LayerCount: 2
Back
SplineSet
180.58984375 278.02734375 m 3
 225.68195642 278.02734375 263.017532096 261.247197416 255.022460938 224.1640625 c 0
 241.424419173 161.087318632 135.83235228 174.398897374 125.986328125 115.00390625 c 0
 116.668776111 66.9000497275 134.750610924 24.46484375 170.240234376 24.46484375 c 3
 160.19238155 24.46484375 152.20065826 40.6887962537 151.3828125 47.12109375 c 0
 155.630859376 86.154296875 184.515625 73.34765625 136.099609376 114.1796875 c 0
 107.443621715 147.985936676 67.4228758995 156.875569521 74.638671875 203.5390625 c 0
 81.8996011699 249.889825963 145.980098038 278.02734375 180.58984375 278.02734375 c 3
148.583984375 254.4140625 m 3
 141.344863392 254.4140625 147.065668127 246.049988883 145.677734376 238.255859376 c 0
 134.198844293 181.555896043 261.195649291 151.451985769 253.092773438 90.416015625 c 0
 240.85546875 21.06640625 177.226498615 -3.125 110.814453125 -3.125 c 3
 49.5064549967 -3.125 19.9096185201 17.4536218359 28.4990234375 60.392578125 c 0
 44.5323827485 140.728309356 163.228080195 122.848301254 172.82421875 182.9140625 c 0
 176.048958949 203.880859376 187.752514 254.4140625 148.583984375 254.4140625 c 3
EndSplineSet
Fore
SplineSet
153 253 m 3
 149.760742188 253 147.248607937 246.015187383 145.677734376 238.255859376 c 0
 134.198844293 181.555896043 261.195649291 151.451985769 253.092773438 90.416015625 c 0
 240.85546875 21.06640625 177.226498615 -3.125 110.814453125 -3.125 c 3
 50.8746130548 -3.125 19.3155437002 17.5767452598 28.4990234375 60.392578125 c 0
 43 128 133.425847288 121.336049257 174 190 c 0
 187 212 175 253 153 253 c 3
180.58984375 278.02734375 m 3
 225.68195642 278.02734375 263.016849785 261.247344515 255.022460938 224.1640625 c 0
 241.424419173 161.087318632 151.924976994 160.849953988 125 107 c 0
 113 83 126.997070312 27.46484375 170.240234375 27.46484375 c 3
 175.030273438 27.46484375 178.677557251 35.6522748048 180 42 c 0
 185 66 169 83 136.099609376 114.1796875 c 0
 103.932624732 144.664326436 67.4228758995 156.875569521 74.638671875 203.5390625 c 0
 81.8996011699 249.889825963 145.980098038 278.02734375 180.58984375 278.02734375 c 3
EndSplineSet
EndChar
StartChar: zero.tabulartext
Encoding: 58368 58368 1238
Width: 463
VWidth: 1159
Flags: HW
LayerCount: 2
Fore
SplineSet
237.03515625 357 m 3
 169.264779418 357 160.348450793 283.108638314 161.1796875 246 c 0
 163.393031255 133.888766013 194.505157726 37 230.4453125 37 c 3
 311.102732915 37 304.285374569 139.564493153 302.134765625 173 c 0
 296.430387887 273.946734753 284.131127511 357 237.03515625 357 c 3
282.35546875 405 m 3
 387.118164062 405 453.186765426 311.754789158 431.810546875 200 c 0
 410.274414062 87.4091796875 310.922851562 -5 198.997070312 -5 c 3
 89.4560546882 -5 17.270908907 87.6898211422 39.810546875 200 c 0
 61.8212890625 309.674804688 173.051757812 405 282.35546875 405 c 3
EndSplineSet
Substitution2: "pnum-1" zero
Substitution2: "lnum-1" zero.tabularlining
Substitution2: "numr-1" zero.numerator
Substitution2: "dnom-1" zero.denom
Substitution2: "'zero' Slashed Zero lookup 22-1" zero.tabulartextalt
EndChar
StartChar: two.tabulartext
Encoding: 58370 58370 514
Width: 463
VWidth: 1159
Flags: HW
LayerCount: 2
Fore
SplineSet
116.661132813 367 m 1
 160.182544368 414.314453125 217.712516125 458 297.493164062 458 c 0
 362.725588267 458 401.392619263 405.066326138 383.225585937 335 c 0
 355.840303687 230 134.229154016 100 148.912109375 107 c 1
 148.912109375 107 384.859643271 107.171844404 333.408203124 118 c 1
 388.716687553 119.82916324 442.574079358 159.418935033 431.349609374 149 c 1
 446.337890624 132 l 1
 446.337890624 132 359.484557033 43.1664367116 339.211914062 -11 c 1
 314.362264668 5 249.37784559 2 186.045898438 2 c 0
 69.1630859371 2 -8.05078125004 0 -14.544921875 0 c 1
 -15.2373046875 18 l 1
 35.8567864895 67.400390625 223.097604313 145.738704045 266.0625 311 c 0
 278.658789061 357.1953125 260.232465277 376 229.955078124 376 c 1
 186.472341449 376 158.790483585 372 132.533203124 353 c 1
 116.661132813 367 l 1
EndSplineSet
Substitution2: "pnum-1" two
Substitution2: "lnum-1" two.tabularlining
Substitution2: "numr-1" two.numerator
Substitution2: "dnom-1" two.denom
EndChar
StartChar: zero.tabularlining
Encoding: 58378 58378 1236
Width: 463
VWidth: 1159
Flags: HW
LayerCount: 2
Fore
SplineSet
296.7109375 575 m 3
 267.146136682 575 236.338500217 549.142811729 194.0390625 367 c 0
 155.56407015 201.325379575 178.052734375 43 211.955078125 43 c 3
 249.745117188 43 281 119 322.08203125 296 c 0
 361.913213382 467.61077539 336.854913101 575 296.7109375 575 c 3
336.331054688 623 m 3
 443.331054688 623 505.157460101 526.046083698 454.283203125 322 c 0
 400.353515625 105.69921875 293.249023438 1 182.249023438 1 c 3
 71.249023438 1 8.35303665438 105.69933817 62.283203125 322 c 0
 112.407226562 523.03515625 228.331054688 623 336.331054688 623 c 3
EndSplineSet
Substitution2: "pnum-1" zero.proportionallining
Substitution2: "onum-1" zero.tabulartext
Substitution2: "numr-1" zero.numerator
Substitution2: "dnom-1" zero.denom
Substitution2: "'zero' Slashed Zero lookup 22-1" zero.tabularliningalt
EndChar
StartChar: uniFB01
Encoding: 64257 64257 1159
Width: 526
VWidth: 1159
UnlinkRmOvrlpSave: 1
Flags: HW
LayerCount: 2
Back
SplineSet
388 604 m 1
 346.67578125 619.176757812 327.333007812 664 276 664 c 1
 261.12890625 664 243.786132812 625.521484375 194 498 c 1025
10 362 m 1
 155.105514174 358.603477318 320.383481387 384.030129999 483 416 c 1
 478 356 l 1
 313.631019444 345.642844784 136.752337008 321.302114218 2 302 c 1
 10 362 l 1
365 197 m 0
 358.666666667 158.095238095 353 102.898538472 363 83 c 1
 367 97.8881840949 372.616389921 103 394 111 c 1
 397.654397035 119.285714286 410.03030303 116.892857143 417 121 c 1
 437 106 l 1
 407.319148936 66.025 322.673758865 -11 282 -11 c 3
 240.766530143 -11 223 20.1579839821 223 56 c 3
 223 96.6653228052 251.564277277 139.578695463 266 183 c 0
 270.189049727 195.009912906 278.92062137 238.059104707 279 272 c 0
 280.421736464 288.139565421 281.666666667 312.384615385 267 314 c 1
 286.27632262 314 237.872175744 335.7828125 312.001953124 343 c 1
 299 385 l 1
 419.020915032 405.486486486 393.367801857 413 411 413 c 3
 441 413 443.852446852 392.172955722 438 365 c 0
 436.5 358 425.910794164 346.950168974 423 341 c 0
 404.428571429 303.2 367.988949189 212.798592303 365 197 c 0
396 754 m 3
 412.698025552 754 491.365853658 696.041666667 511 647 c 1
 502.363636364 600.65 486.818181819 588.633333333 397 544 c 1
 348.535101674 575.210084034 332.637597211 664 288 664 c 3
 203.087683559 664 272.20205564 608.495247154 200 498 c 0
 134.529553366 394.544285401 118.617424242 23 58 -172 c 0
 39.9258256392 -235.62109375 13.0359552557 -278.947265625 -17 -323 c 1
 -35.2352941176 -321 -33.4117647059 -319 -110 -319 c 3
 -147.8 -319 -205.4 -324.6 -227 -326 c 1
 -235 -278 l 1
 -135.783203125 -252.488619752 -109.906150181 -234.751250293 -82 -187 c 0
 -3.2233483012 -50 53.738314668 292.859408179 79 493 c 0
 94.8152489026 621 120.449061023 615.86754722 251 701 c 0
 297.778412986 728.302182622 334.777777778 754 396 754 c 3
EndSplineSet
Fore
SplineSet
51 362 m 1
 210.836914062 358.603515625 280.875 376.030273438 460 408 c 1
 471 349 l 1
 290.7109375 338.642578125 190.803710938 321.301757812 43 302 c 1
 51 362 l 1
422 197 m 0
 415.666992188 158.095703125 412 124 416 111 c 1
 418 106 422 103 434 107 c 1
 441 110 466.030273438 116.892578125 473 121 c 1
 493 106 l 1
 463.319335938 66.025390625 387.673828125 -11 347 -11 c 3
 302.766601562 -11 284 25.158203125 284 61 c 3
 284 101.665039062 307.927734375 139.795898438 321 183 c 0
 324.68359375 195.174804688 334.021484375 238.190429688 335 272 c 0
 335.46875 288.1953125 333.680664062 305.80859375 329 314 c 0
 325 321 309 335 268 331 c 1
 272 373 l 1
 392.020507812 393.486328125 438.368164062 413 456 413 c 3
 486 413 492.000976562 391 483 365 c 0
 480.658203125 358.235351562 473.791992188 347.006835938 471 341 c 0
 453.428710938 303.200195312 424.583007812 212.870117188 422 197 c 0
437 754 m 3
 459.505859375 754 540.536132812 696.041992188 567 647 c 1
 559.12109375 600.650390625 544.939453125 588.633789062 463 544 c 1
 392.303710938 575.209960938 394.11328125 664 329 664 c 3
 308.826171875 664 278.217773438 622.006835938 233 498 c 0
 167 317 154.8046875 24.431640625 99 -172 c 0
 80.92578125 -235.62109375 54.0361328125 -278.947265625 24 -323 c 1
 5.7646484375 -321 7.587890625 -319 -69 -319 c 3
 -106.799804688 -319 -164.400390625 -324.599609375 -186 -326 c 1
 -194 -278 l 1
 -94.783203125 -252.48828125 -68.5693359375 -234.946289062 -41 -187 c 0
 37.7763671875 -50 95.263671875 292.793945312 120 493 c 0
 135.815429688 621 157.393554688 622.436523438 292 701 c 0
 338.778320312 728.301757812 375.77734375 754 437 754 c 3
EndSplineSet
LCarets2: 1 276
Ligature2: "liga-1" f i
EndChar
StartChar: uniFB03
Encoding: 64259 64259 1161
Width: 762
VWidth: 1159
UnlinkRmOvrlpSave: 1
Flags: HW
LayerCount: 2
Back
SplineSet
652 754 m 3
 683 754 754 728 775 706 c 1
 765.984848485 660.1 749.757575758 648.2 656 604 c 1
 614.675675676 619.176470588 595.333333333 664 544 664 c 3
 523 664 477 541 462 498 c 0
 391.89562272 297.034118463 385.678935561 11.0963000538 338 -103 c 0
 307.494520906 -176 288.797902342 -193.733466363 248 -225 c 0
 204.396244031 -258.416872546 130.058172804 -265 95 -265 c 3
 57.523076923 -265 11.0153846154 -263 -8 -260 c 1
 44 -224 l 1
 178.801901537 -211.643430735 199.095048262 -141.487345918 232 -66 c 0
 265.068378249 9.86226315573 329.108716491 328.568515084 348 493 c 0
 362.705725551 621 385.210239397 615.421716422 515 701 c 0
 556.407043917 728.302182622 594.155555556 754 652 754 c 3
414 714 m 3
 443.68765879 714 511.681974086 690.166666666 531.79296875 670 c 1
 525.984848485 662.1 459.757575758 568.2 450 546 c 1
 399.751842752 570.100840336 360.927734375 624 312 624 c 3
 296.702941459 624 248.91015625 554.798828125 211 424 c 0
 177.5859375 308.713867188 154.436977053 10.4110407429 106 -172 c 0
 87.959239456 -239.94053029 32.2589666193 -278.947265625 -17 -323 c 1
 -36.8039215686 -321 -34.8235294117 -319 -118 -319 c 3
 -155.8 -319 -213.4 -324.6 -235 -326 c 1
 -243 -278 l 1
 -116.872062373 -252.488619752 -64.2814540979 -241.842178826 -34 -187 c 0
 38.1603313892 -56.3117647059 89.009782462 273.107059381 112 465 c 0
 126.416070379 585.326923076 149.108613488 576.673429928 277 661 c 0
 318.407043917 688.302182622 356.155555556 714 414 714 c 3
25.6669921875 340.05859375 m 1
 132.256525051 329.126796282 550.873531514 365.493196631 707 414 c 1
 706.345884186 421.973488353 697.691269077 345.94647741 697.036132812 353.918945312 c 1
 577.207090894 343.382996944 137.124150866 304.622897068 14 280 c 1
 14.5561376362 272.020004824 25.1118085744 348.039542949 25.6669921875 340.05859375 c 1
621 197 m 0
 614.666666667 158.095238095 609 102.898538472 619 83 c 1
 623 97.8881840949 628.616389921 103 650 111 c 1
 653.654397035 119.285714286 666.03030303 116.892857143 673 121 c 1
 693 106 l 1
 663.319148936 66.025 578.673758865 -11 538 -11 c 3
 496.766530143 -11 479 20.1579839821 479 56 c 3
 479 96.6653228052 507.564277277 139.578695463 522 183 c 0
 526.189049727 195.009912906 534.92062137 238.059104707 535 272 c 0
 536.421736464 288.139565421 537.666666667 312.384615385 523 314 c 1
 542.27632262 314 493.872175744 335.7828125 568.001953124 343 c 1
 555 385 l 1
 675.020915032 405.486486486 649.367801857 413 667 413 c 3
 697 413 699.852446852 392.172955722 694 365 c 0
 692.5 358 681.910794164 346.950168974 679 341 c 0
 660.428571429 303.2 623.988949189 212.798592303 621 197 c 0
666 754 m 3
 679.975609756 754 758.048780488 695.5 777 646 c 1
 768.287878788 600.1 752.606060607 588.2 662 544 c 1
 615.17936118 574.210084034 594 664 558 664 c 3
 472.724896019 664 541.729301966 608.311705434 469 498 c 0
 408.856830578 405.394031692 386.336163413 11.3311742589 338 -103 c 0
 314.221926891 -159.139128363 249.436434659 -207.73988514 262 -241 c 1
 235.25490196 -251 132.530223451 -265 95 -265 c 3
 57.523076923 -265 11.0153846154 -263 -8 -260 c 1
 44 -224 l 1
 178.801901537 -211.643430735 199.324231434 -141.095669787 232 -66 c 0
 265.068378249 9.86226315573 328.020637586 328.874631282 348 493 c 0
 363.593344232 621 388.233655026 616.269393504 519 701 c 0
 567.459145878 728.302182622 603.933333334 754 666 754 c 3
414 714 m 3
 443.68765879 714 511.681974086 690.166666666 531.79296875 670 c 1
 525.984848485 662.1 459.757575758 568.2 450 546 c 1
 399.751842752 570.100840336 363.927272727 624 306 624 c 3
 226.875816993 624 299.40360956 574.829171329 233 470 c 0
 173.474078616 370.75059672 159.268787597 9.05900916249 106 -172 c 0
 87.959239456 -239.94053029 32.2589666193 -278.947265625 -17 -323 c 1
 -36.8039215686 -321 -34.8235294117 -319 -118 -319 c 3
 -155.8 -319 -213.4 -324.6 -235 -326 c 1
 -243 -278 l 1
 -116.872062373 -252.488619752 -64.2527767688 -241.858003413 -34 -187 c 0
 38.1603313892 -56.3117647059 87.8336337242 273.251629726 112 465 c 0
 126.416070379 585.326923076 149.064420632 576.740491955 277 661 c 0
 318.407043917 688.302182622 356.155555556 714 414 714 c 3
EndSplineSet
Fore
SplineSet
25.6669921875 340.05859375 m 1
 148.219758081 329.126796282 541.733398438 364 705 408 c 1
 704.345703125 415.973632812 713 356 713 352 c 1
 575.764648438 341.463867188 155.00915749 304.622897068 14 280 c 1
 14.5561376362 272.020004824 25.1118085744 348.039542949 25.6669921875 340.05859375 c 1
666 197 m 0
 659.666992188 158.095703125 656 124 660 111 c 1
 662 106 666 103 678 107 c 1
 685 110 710.030273438 116.892578125 717 121 c 1
 737 106 l 1
 707.319335938 66.025390625 631.673828125 -11 591 -11 c 3
 546.766601562 -11 528 25.158203125 528 61 c 3
 528 101.665039062 551.9296875 139.794921875 565 183 c 0
 568.68359375 195.174804688 578.021484375 238.190429688 579 272 c 0
 579.46875 288.1953125 577.198242188 305.55078125 573 314 c 0
 569 322.049804688 553 340.599609375 512 336 c 1
 516 372 l 1
 636.020507812 391.056640625 682.368164062 413 700 413 c 3
 730 413 736 391 727 365 c 0
 724.658203125 358.235351562 717.791992188 347.006835938 715 341 c 0
 697.428710938 303.200195312 668.583007812 212.870117188 666 197 c 0
696 754 m 3
 713.123046875 754 783.780273438 695.5 807 646 c 1
 799.87890625 600.099609375 787.060546875 588.200195312 713 544 c 1
 646.94921875 574.209960938 644.954101562 664 580 664 c 3
 553.922851562 664 534.663085938 611.615234375 488 488 c 0
 431 337 416.712890625 11.1708984375 368 -103 c 0
 336 -178 301 -210 277 -226 c 1
 230 -259 162.530273438 -265 125 -265 c 3
 87.5234375 -265 41.015625 -263 22 -260 c 1
 54 -224 l 1
 203.142578125 -211.643554688 228.700195312 -142.39453125 262 -66 c 0
 295.068359375 9.8623046875 358.005859375 328.875976562 378 493 c 0
 393.59375 621 413.24609375 624.515625 549 701 c 0
 597.458984375 728.301757812 633.93359375 754 696 754 c 3
414 714 m 3
 443.68765879 714 511.681974086 690.166666666 531.79296875 670 c 1
 525.984848485 662.1 459.757575758 568.2 450 546 c 1
 399.751842752 570.100840336 359.927734375 624 313 624 c 3
 303.151142198 624 268.622124706 600.12545033 217 444 c 0
 176 320 154.436977053 10.4110407429 106 -172 c 0
 87.959239456 -239.94053029 32.2589666193 -278.947265625 -17 -323 c 1
 -36.8039215686 -321 -34.8235294117 -319 -118 -319 c 3
 -155.8 -319 -213.4 -324.6 -235 -326 c 1
 -243 -278 l 1
 -116.872062373 -252.488619752 -64.2814540979 -241.842178826 -34 -187 c 0
 38.1603313892 -56.3117647059 89.009782462 273.107059381 112 465 c 0
 126.416070379 585.326923076 149.108613488 576.673429928 277 661 c 0
 318.407043917 688.302182622 356.155555556 714 414 714 c 3
EndSplineSet
LCarets2: 2 464 244
Ligature2: "liga-1" f f i
EndChar
StartChar: uniFB23
Encoding: 64291 64291 1166
Width: 812
Flags: HW
AnchorPoint: "Top" 261 619.44 basechar 0
LayerCount: 2
Fore
SplineSet
125.280273438 313.200195312 m 1
 157.759765625 291.16015625 l 1
 145 255.200195312 l 1
 138.040039062 225.040039062 150.799804688 125.280273438 153.120117188 62.6396484375 c 1
 89.3203125 -20.8798828125 l 1
 60.3203125 -8.1201171875 l 1
 59.16015625 207.639648438 l 1
 125.280273438 313.200195312 l 1
145 567.240234375 m 1
 293.216796875 576.51953125 664.865234375 563.759765625 740.080078125 557.959960938 c 1
 744.719726562 504.599609375 749.360351562 451.240234375 751.6796875 399.040039062 c 1
 757.48046875 317.83984375 759.799804688 242.440429688 759.799804688 176.3203125 c 0
 759.799804688 136.879882812 758.639648438 99.759765625 757.48046875 68.4404296875 c 1
 735.440429688 38.2802734375 713.400390625 6.9599609375 692.51953125 -19.7197265625 c 1
 663.51953125 -4.6396484375 l 1
 682.080078125 156.599609375 697.16015625 308.559570312 690.200195312 421.080078125 c 1
 487.129882812 429.200195312 269.201171875 432.6796875 157.759765625 431.51953125 c 1
 121.799804688 436.16015625 67.2802734375 438.48046875 48.7197265625 474.440429688 c 1
 82.3603515625 602.040039062 l 1
 110.200195312 596.240234375 l 1
 145 567.240234375 l 1
EndSplineSet
EndChar
StartChar: uniFB26
Encoding: 64294 64294 1169
Width: 812
Flags: HW
AnchorPoint: "Top" 263.32 619.44 basechar 0
LayerCount: 2
Fore
SplineSet
702.959960938 0 m 1
 83.51953125 -1.16015625 l 1
 77.7197265625 129.919921875 l 1
 726.16015625 129.919921875 l 1
 702.959960938 0 l 1
110.200195312 598.559570312 m 1
 151.959960938 567.240234375 l 1
 138.040039062 531.280273438 l 1
 110.200195312 394.400390625 l 1
 113.6796875 288.83984375 125.280273438 171.6796875 132.240234375 82.3603515625 c 1
 83.51953125 -1.16015625 l 1
 54.51953125 10.4404296875 l 1
 53.3603515625 511.559570312 l 1
 110.200195312 598.559570312 l 1
129.919921875 567.240234375 m 1
 277.8203125 576.51953125 648.583007812 563.759765625 721.51953125 557.959960938 c 1
 734.280273438 516.200195312 744.719726562 472.120117188 751.6796875 431.51953125 c 1
 757.48046875 345.6796875 759.799804688 263.3203125 759.799804688 192.559570312 c 0
 759.799804688 153.120117188 758.639648438 117.16015625 757.48046875 88.16015625 c 1
 738.919921875 58 718.040039062 26.6796875 702.959960938 0 c 1
 678.599609375 13.919921875 l 1
 692.51953125 168.200195312 706.440429688 314.360351562 700.639648438 421.080078125 c 1
 491.926757812 429.200195312 265.999023438 432.6796875 151.959960938 431.51953125 c 1
 126.440429688 435 84.6796875 433.83984375 73.080078125 458.200195312 c 1
 95.1201171875 538.240234375 l 1
 110.200195312 562.599609375 l 1
 129.919921875 567.240234375 l 1
EndSplineSet
EndChar
StartChar: NameMe.ampersand
Encoding: 65538 -1 1297
Width: 611
Flags: HW
LayerCount: 2
Fore
SplineSet
186 267 m 1
 142.017578125 247.833007812 116 211.416992188 116 175 c 3
 116 95.3232421875 154.666992188 46 218 46 c 3
 273.903271968 46 311.646203976 83.2099609375 333 107 c 1
 277.076274671 224.3828125 216.35911801 255.037109375 186 267 c 1
181 440 m 0
 157.551757812 440 122 423.419921875 122 396 c 3
 122 353.091427365 180.566058279 334.182010135 219 316 c 1
 249.90625 335.63609375 265 353.81859375 265 372 c 3
 265 405.333007812 230.304247359 440 181 440 c 0
561 355 m 1
 520 355 490.038746022 339.984973684 478 309 c 0
 452.737042683 243.978936658 432.982088415 191.19629491 398 130 c 1
 426.384277344 62.6140644338 456.153773717 41 479 41 c 3
 508.2109375 41 527.947265625 83.2626953125 539 110 c 1
 570 97 l 1
 541.60546875 34.716796875 520.309570312 -5 444 -5 c 3
 405.104492188 -5 372.814453125 27.7431640625 353 69 c 1
 330.483219798 48.83203125 289.367247046 -11 175 -11 c 3
 89.345703125 -11 44 63.4921875 44 131 c 3
 44 207.251953125 94.9140625 260.330078125 153 285 c 1
 115.36328125 303.6875 84 335.3125 84 377 c 3
 84 449.204101562 149.5 476.591796875 215 499 c 1
 294.333333333 475.581054688 327 438.109375 327 378 c 3
 327 365.393554688 289.296233259 323.63655599 254 300 c 1
 296.071280716 283.033021439 351.428719284 225.492255632 378 165 c 1
 404.816287879 212.735668945 431.74072987 292.543162768 442 337 c 0
 448 363 408 379 388 386 c 1
 399 419 l 1
 441 403 514 389 564 390 c 1
 561 355 l 1
EndSplineSet
EndChar
